<svg width="48" height="48" viewBox="0 0 48 48" fill="none" xmlns="http://www.w3.org/2000/svg">
<path fill-rule="evenodd" clip-rule="evenodd" d="M24 2C11.8497 2 2 11.8497 2 24C2 36.1503 11.8497 46 24 46C36.1503 46 46 36.1503 46 24C46 21.3791 45.5417 18.8653 44.7009 16.5342C44.2235 15.2107 42.5482 14.9452 41.5533 15.9401C40.9532 16.5402 40.7895 17.4415 41.0606 18.2456C41.6698 20.0525 42 21.9877 42 24C42 33.9411 33.9411 42 24 42C14.0589 42 6 33.9411 6 24C6 14.0589 14.0589 6 24 6C27.834 6 31.3881 7.19872 34.3079 9.24182C35.1733 9.84738 36.3641 9.81558 37.111 9.06871C37.9296 8.25004 37.8949 6.9033 36.9599 6.22056C33.325 3.56645 28.8454 2 24 2ZM31.1253 11.9463C32.1565 12.5572 32.2165 13.9632 31.3689 14.8107C30.6447 15.535 29.5037 15.5867 28.5943 15.1155C27.2186 14.4027 25.6563 14 24 14C18.4772 14 14 18.4772 14 24C14 29.5228 18.4772 34 24 34C29.5228 34 34 29.5228 34 24C34 23.6849 34.115 23.3783 34.3378 23.1555L34.7055 22.7879C35.9356 21.5578 37.983 22.1262 37.9994 23.8658C37.9998 23.9105 38 23.9552 38 24C38 31.732 31.732 38 24 38C16.268 38 10 31.732 10 24C10 16.268 16.268 10 24 10C26.6019 10 29.038 10.7098 31.1253 11.9463ZM42.87 11.8996C43.651 11.1185 43.651 9.85219 42.87 9.07114C42.0889 8.29009 40.8226 8.29009 40.0415 9.07114L24.4852 24.6275L20.2425 20.3848C19.4615 19.6038 18.1952 19.6038 17.4141 20.3848C16.6331 21.1659 16.6331 22.4322 17.4141 23.2133L24.1316 29.9308C24.3269 30.126 24.6435 30.126 24.8387 29.9308L42.87 11.8996Z" fill="#FD8467"/>
</svg>
