<svg width="48" height="48" viewBox="0 0 48 48" fill="none" xmlns="http://www.w3.org/2000/svg">
<path d="M18 16C19.1046 16 20 16.8954 20 18V18.02C20 19.1246 19.1046 20.02 18 20.02C16.8954 20.02 16 19.1246 16 18.02V18C16 16.8954 16.8954 16 18 16Z" fill="#FD8467"/>
<path d="M20 24C20 22.8954 19.1046 22 18 22C16.8954 22 16 22.8954 16 24V24.02C16 25.1246 16.8954 26.02 18 26.02C19.1046 26.02 20 25.1246 20 24.02V24Z" fill="#FD8467"/>
<path d="M18 28C19.1046 28 20 28.8954 20 30V30.02C20 31.1246 19.1046 32.02 18 32.02C16.8954 32.02 16 31.1246 16 30.02V30C16 28.8954 16.8954 28 18 28Z" fill="#FD8467"/>
<path d="M20 36C20 34.8954 19.1046 34 18 34C16.8954 34 16 34.8954 16 36V36.02C16 37.1246 16.8954 38.02 18 38.02C19.1046 38.02 20 37.1246 20 36.02V36Z" fill="#FD8467"/>
<path fill-rule="evenodd" clip-rule="evenodd" d="M27.0515 4.2987C27.6411 4.66311 28 5.30685 28 6V12.9296L39.1094 20.3359C39.6658 20.7069 40 21.3313 40 22V40H42C43.1046 40 44 40.8954 44 42C44 43.1046 43.1046 44 42 44H38.0112L38 44L37.9889 44L26 44H10L6 44C4.89543 44 4 43.1046 4 42C4 40.8954 4.89543 40 6 40H8V14C8 13.2425 8.428 12.5499 9.10557 12.2111L25.1056 4.21115C25.7255 3.90116 26.4618 3.93429 27.0515 4.2987ZM36 40V23.0704L28 17.737V40H36ZM24 13.9711C23.9998 13.9892 23.9998 14.0072 24 14.0253V40H12V15.2361L24 9.23607V13.9711Z" fill="#FD8467"/>
</svg>
