<svg width="48" height="48" viewBox="0 0 48 48" fill="none" xmlns="http://www.w3.org/2000/svg">
<path fill-rule="evenodd" clip-rule="evenodd" d="M30.0312 27.9066C31.16 27.0674 32.1118 26.0593 32.8672 25.043C34.7574 22.5 36 19.1795 36 16C36 9.37258 30.6274 4 24 4C17.3726 4 12 9.37258 12 16C12 19.1795 13.2426 22.5 15.1328 25.043C15.8882 26.0593 16.84 27.0674 17.9688 27.9066L19.4022 32.2067C17.433 32.8052 16 34.6352 16 36.8V39.2C16 41.851 18.149 44 20.8 44H27.2C29.851 44 32 41.851 32 39.2V36.8C32 34.6352 30.567 32.8052 28.5978 32.2067L30.0312 27.9066ZM25.1399 29.9311C24.7689 29.9763 24.3888 30 24 30C23.6112 30 23.2311 29.9763 22.8601 29.9311L23.5497 32H24.4503L25.1399 29.9311ZM32 16C32 20.4183 28.4183 26 24 26C19.5817 26 16 20.4183 16 16C16 11.5817 19.5817 8 24 8C28.4183 8 32 11.5817 32 16ZM28 36.8C28 36.3582 27.6418 36 27.2 36H20.8C20.3582 36 20 36.3582 20 36.8V39.2C20 39.6418 20.3582 40 20.8 40H27.2C27.6418 40 28 39.6418 28 39.2V36.8Z" fill="#FD8467"/>
</svg>
