<svg width="48" height="48" viewBox="0 0 48 48" fill="none" xmlns="http://www.w3.org/2000/svg">
<path fill-rule="evenodd" clip-rule="evenodd" d="M37.2344 4.15176C36.9985 4.24936 36.7775 4.39403 36.5858 4.58579L30.5858 10.5858C29.8047 11.3668 29.8047 12.6332 30.5858 13.4142C31.3668 14.1953 32.6332 14.1953 33.4142 13.4142L36 10.8284V33C36 34.3261 35.4732 35.5979 34.5355 36.5355C33.5979 37.4732 32.3261 38 31 38C29.6739 38 28.4021 37.4732 27.4645 36.5355C26.5268 35.5979 26 34.3261 26 33V15C26 12.6131 25.0518 10.3239 23.364 8.63604C21.6761 6.94821 19.3869 6 17 6C14.6131 6 12.3239 6.94821 10.636 8.63604C8.94821 10.3239 8 12.6131 8 15V32.3431C7.16419 32.6387 6.39617 33.1186 5.75736 33.7574C4.63214 34.8826 4 36.4087 4 38C4 39.5913 4.63214 41.1174 5.75736 42.2426C6.88258 43.3679 8.4087 44 10 44C11.5913 44 13.1174 43.3679 14.2426 42.2426C15.3679 41.1174 16 39.5913 16 38C16 36.4087 15.3679 34.8826 14.2426 33.7574C13.6038 33.1186 12.8358 32.6387 12 32.3431V15C12 13.6739 12.5268 12.4021 13.4645 11.4645C14.4021 10.5268 15.6739 10 17 10C18.3261 10 19.5979 10.5268 20.5355 11.4645C21.4732 12.4021 22 13.6739 22 15V33C22 35.3869 22.9482 37.6761 24.636 39.364C26.3239 41.0518 28.6131 42 31 42C33.3869 42 35.6761 41.0518 37.364 39.364C39.0518 37.6761 40 35.3869 40 33V10.8284L42.5858 13.4142C43.3668 14.1953 44.6332 14.1953 45.4142 13.4142C46.1953 12.6332 46.1953 11.3668 45.4142 10.5858L39.4142 4.58579C38.8249 3.99649 37.9594 3.85181 37.2344 4.15176ZM8.58579 36.5858C8.96086 36.2107 9.46957 36 10 36C10.5304 36 11.0391 36.2107 11.4142 36.5858C11.7893 36.9609 12 37.4696 12 38C12 38.5304 11.7893 39.0391 11.4142 39.4142C11.0391 39.7893 10.5304 40 10 40C9.46957 40 8.96086 39.7893 8.58579 39.4142C8.21071 39.0391 8 38.5304 8 38C8 37.4696 8.21071 36.9609 8.58579 36.5858Z" fill="#FD8467"/>
</svg>
