<svg width="1400" height="855" viewBox="0 0 1400 855" fill="none" xmlns="http://www.w3.org/2000/svg">
<g opacity="0.15">
<path d="M20.5 2.18558e-08C20.5 -0.276142 20.2761 -0.5 20 -0.5C19.7239 -0.5 19.5 -0.276142 19.5 -2.18558e-08L20.5 2.18558e-08ZM20 277.333C18.5272 277.333 17.3333 278.527 17.3333 280C17.3333 281.473 18.5272 282.667 20 282.667C21.4727 282.667 22.6667 281.473 22.6667 280C22.6667 278.527 21.4727 277.333 20 277.333ZM19.5 -2.18558e-08L19.5 280L20.5 280L20.5 2.18558e-08L19.5 -2.18558e-08Z" fill="#74FBFD"/>
<path d="M20 282L20 855" stroke="#74FBFD" stroke-miterlimit="10" stroke-linecap="round" stroke-dasharray="5 5"/>
<path d="M50.5 2.18558e-08C50.5 -0.276142 50.2761 -0.5 50 -0.5C49.7239 -0.5 49.5 -0.276142 49.5 -2.18558e-08L50.5 2.18558e-08ZM50 339.333C48.5272 339.333 47.3333 340.527 47.3333 342C47.3333 343.473 48.5272 344.667 50 344.667C51.4727 344.667 52.6667 343.473 52.6667 342C52.6667 340.527 51.4727 339.333 50 339.333ZM49.5 -2.18558e-08L49.5 342L50.5 342L50.5 2.18558e-08L49.5 -2.18558e-08Z" fill="#74FBFD"/>
<path d="M50 344L50 855" stroke="#74FBFD" stroke-miterlimit="10" stroke-linecap="round" stroke-dasharray="5 5"/>
<path d="M80.5 2.18558e-08C80.5 -0.276142 80.2761 -0.5 80 -0.5C79.7239 -0.5 79.5 -0.276142 79.5 -2.18558e-08L80.5 2.18558e-08ZM80 89.3333C78.5272 89.3333 77.3333 90.5272 77.3333 92C77.3333 93.4728 78.5272 94.6667 80 94.6667C81.4728 94.6667 82.6667 93.4728 82.6667 92C82.6667 90.5272 81.4728 89.3333 80 89.3333ZM79.5 -2.18558e-08L79.5 92L80.5 92L80.5 2.18558e-08L79.5 -2.18558e-08Z" fill="#74FBFD"/>
<path d="M80 94L80 855" stroke="#74FBFD" stroke-miterlimit="10" stroke-linecap="round" stroke-dasharray="5 5"/>
<path d="M110.5 2.18558e-08C110.5 -0.276142 110.276 -0.5 110 -0.5C109.724 -0.5 109.5 -0.276142 109.5 -2.18558e-08L110.5 2.18558e-08ZM110 277.333C108.527 277.333 107.333 278.527 107.333 280C107.333 281.473 108.527 282.667 110 282.667C111.473 282.667 112.667 281.473 112.667 280C112.667 278.527 111.473 277.333 110 277.333ZM109.5 -2.18558e-08L109.5 280L110.5 280L110.5 2.18558e-08L109.5 -2.18558e-08Z" fill="#74FBFD"/>
<path d="M110 282L110 855" stroke="#74FBFD" stroke-miterlimit="10" stroke-linecap="round" stroke-dasharray="5 5"/>
<path d="M140.5 2.18558e-08C140.5 -0.276142 140.276 -0.5 140 -0.5C139.724 -0.5 139.5 -0.276142 139.5 -2.18558e-08L140.5 2.18558e-08ZM140 547.333C138.527 547.333 137.333 548.527 137.333 550C137.333 551.473 138.527 552.667 140 552.667C141.473 552.667 142.667 551.473 142.667 550C142.667 548.527 141.473 547.333 140 547.333ZM139.5 -2.18558e-08L139.5 550L140.5 550L140.5 2.18558e-08L139.5 -2.18558e-08Z" fill="#74FBFD"/>
<path d="M140 552L140 855" stroke="#74FBFD" stroke-miterlimit="10" stroke-linecap="round" stroke-dasharray="5 5"/>
<path d="M170.5 2.18558e-08C170.5 -0.276142 170.276 -0.5 170 -0.5C169.724 -0.5 169.5 -0.276142 169.5 -2.18558e-08L170.5 2.18558e-08ZM170 317.333C168.527 317.333 167.333 318.527 167.333 320C167.333 321.473 168.527 322.667 170 322.667C171.473 322.667 172.667 321.473 172.667 320C172.667 318.527 171.473 317.333 170 317.333ZM169.5 -2.18558e-08L169.5 320L170.5 320L170.5 2.18558e-08L169.5 -2.18558e-08Z" fill="#74FBFD"/>
<path d="M170 322L170 855" stroke="#74FBFD" stroke-miterlimit="10" stroke-linecap="round" stroke-dasharray="5 5"/>
<path d="M200.5 2.18558e-08C200.5 -0.276142 200.276 -0.5 200 -0.5C199.724 -0.5 199.5 -0.276142 199.5 -2.18558e-08L200.5 2.18558e-08ZM200 389.333C198.527 389.333 197.333 390.527 197.333 392C197.333 393.473 198.527 394.667 200 394.667C201.473 394.667 202.667 393.473 202.667 392C202.667 390.527 201.473 389.333 200 389.333ZM199.5 -2.18558e-08L199.5 392L200.5 392L200.5 2.18558e-08L199.5 -2.18558e-08Z" fill="#74FBFD"/>
<path d="M200 394L200 855" stroke="#74FBFD" stroke-miterlimit="10" stroke-linecap="round" stroke-dasharray="5 5"/>
<path d="M230.5 2.18558e-08C230.5 -0.276142 230.276 -0.5 230 -0.5C229.724 -0.5 229.5 -0.276142 229.5 -2.18558e-08L230.5 2.18558e-08ZM230 479.333C228.527 479.333 227.333 480.527 227.333 482C227.333 483.473 228.527 484.667 230 484.667C231.473 484.667 232.667 483.473 232.667 482C232.667 480.527 231.473 479.333 230 479.333ZM229.5 -2.18558e-08L229.5 482L230.5 482L230.5 2.18558e-08L229.5 -2.18558e-08Z" fill="#74FBFD"/>
<path d="M230 484L230 855" stroke="#74FBFD" stroke-miterlimit="10" stroke-linecap="round" stroke-dasharray="5 5"/>
<path d="M260.5 2.18558e-08C260.5 -0.276142 260.276 -0.5 260 -0.5C259.724 -0.5 259.5 -0.276142 259.5 -2.18558e-08L260.5 2.18558e-08ZM260 519.333C258.527 519.333 257.333 520.527 257.333 522C257.333 523.473 258.527 524.667 260 524.667C261.473 524.667 262.667 523.473 262.667 522C262.667 520.527 261.473 519.333 260 519.333ZM259.5 -2.18558e-08L259.5 522L260.5 522L260.5 2.18558e-08L259.5 -2.18558e-08Z" fill="#74FBFD"/>
<path d="M260 524L260 855" stroke="#74FBFD" stroke-miterlimit="10" stroke-linecap="round" stroke-dasharray="5 5"/>
<path d="M290.5 2.18558e-08C290.5 -0.276142 290.276 -0.5 290 -0.5C289.724 -0.5 289.5 -0.276142 289.5 -2.18558e-08L290.5 2.18558e-08ZM290 437.333C288.527 437.333 287.333 438.527 287.333 440C287.333 441.473 288.527 442.667 290 442.667C291.473 442.667 292.667 441.473 292.667 440C292.667 438.527 291.473 437.333 290 437.333ZM289.5 -2.18558e-08L289.5 440L290.5 440L290.5 2.18558e-08L289.5 -2.18558e-08Z" fill="#74FBFD"/>
<path d="M290 442L290 855" stroke="#74FBFD" stroke-miterlimit="10" stroke-linecap="round" stroke-dasharray="5 5"/>
<path d="M320.5 2.18558e-08C320.5 -0.276142 320.276 -0.5 320 -0.5C319.724 -0.5 319.5 -0.276142 319.5 -2.18558e-08L320.5 2.18558e-08ZM320 389.333C318.527 389.333 317.333 390.527 317.333 392C317.333 393.473 318.527 394.667 320 394.667C321.473 394.667 322.667 393.473 322.667 392C322.667 390.527 321.473 389.333 320 389.333ZM319.5 -2.18558e-08L319.5 392L320.5 392L320.5 2.18558e-08L319.5 -2.18558e-08Z" fill="#74FBFD"/>
<path d="M320 394L320 855" stroke="#74FBFD" stroke-miterlimit="10" stroke-linecap="round" stroke-dasharray="5 5"/>
<path d="M350.5 2.18558e-08C350.5 -0.276142 350.276 -0.5 350 -0.5C349.724 -0.5 349.5 -0.276142 349.5 -2.18558e-08L350.5 2.18558e-08ZM350 317.333C348.527 317.333 347.333 318.527 347.333 320C347.333 321.473 348.527 322.667 350 322.667C351.473 322.667 352.667 321.473 352.667 320C352.667 318.527 351.473 317.333 350 317.333ZM349.5 -2.18558e-08L349.5 320L350.5 320L350.5 2.18558e-08L349.5 -2.18558e-08Z" fill="#74FBFD"/>
<path d="M350 322L350 855" stroke="#74FBFD" stroke-miterlimit="10" stroke-linecap="round" stroke-dasharray="5 5"/>
<path d="M380.5 2.18558e-08C380.5 -0.276142 380.276 -0.5 380 -0.5C379.724 -0.5 379.5 -0.276142 379.5 -2.18558e-08L380.5 2.18558e-08ZM380 317.333C378.527 317.333 377.333 318.527 377.333 320C377.333 321.473 378.527 322.667 380 322.667C381.473 322.667 382.667 321.473 382.667 320C382.667 318.527 381.473 317.333 380 317.333ZM379.5 -2.18558e-08L379.5 320L380.5 320L380.5 2.18558e-08L379.5 -2.18558e-08Z" fill="#74FBFD"/>
<path d="M380 322L380 855" stroke="#74FBFD" stroke-miterlimit="10" stroke-linecap="round" stroke-dasharray="5 5"/>
<path d="M410.5 2.18558e-08C410.5 -0.276142 410.276 -0.5 410 -0.5C409.724 -0.5 409.5 -0.276142 409.5 -2.18558e-08L410.5 2.18558e-08ZM410 209.333C408.527 209.333 407.333 210.527 407.333 212C407.333 213.473 408.527 214.667 410 214.667C411.473 214.667 412.667 213.473 412.667 212C412.667 210.527 411.473 209.333 410 209.333ZM409.5 -2.18558e-08L409.5 212L410.5 212L410.5 2.18558e-08L409.5 -2.18558e-08Z" fill="#74FBFD"/>
<path d="M410 214L410 855" stroke="#74FBFD" stroke-miterlimit="10" stroke-linecap="round" stroke-dasharray="5 5"/>
<path d="M440.5 2.18558e-08C440.5 -0.276142 440.276 -0.5 440 -0.5C439.724 -0.5 439.5 -0.276142 439.5 -2.18558e-08L440.5 2.18558e-08ZM440 119.333C438.527 119.333 437.333 120.527 437.333 122C437.333 123.473 438.527 124.667 440 124.667C441.473 124.667 442.667 123.473 442.667 122C442.667 120.527 441.473 119.333 440 119.333ZM439.5 -2.18558e-08L439.5 122L440.5 122L440.5 2.18558e-08L439.5 -2.18558e-08Z" fill="#74FBFD"/>
<path d="M440 124L440 855" stroke="#74FBFD" stroke-miterlimit="10" stroke-linecap="round" stroke-dasharray="5 5"/>
<path d="M470.5 2.18558e-08C470.5 -0.276142 470.276 -0.5 470 -0.5C469.724 -0.5 469.5 -0.276142 469.5 -2.18558e-08L470.5 2.18558e-08ZM470 89.3333C468.527 89.3333 467.333 90.5272 467.333 92C467.333 93.4728 468.527 94.6667 470 94.6667C471.473 94.6667 472.667 93.4728 472.667 92C472.667 90.5272 471.473 89.3333 470 89.3333ZM469.5 -2.18558e-08L469.5 92L470.5 92L470.5 2.18558e-08L469.5 -2.18558e-08Z" fill="#74FBFD"/>
<path d="M470 94L470 855" stroke="#74FBFD" stroke-miterlimit="10" stroke-linecap="round" stroke-dasharray="5 5"/>
<path d="M500.5 2.18558e-08C500.5 -0.276142 500.276 -0.5 500 -0.5C499.724 -0.5 499.5 -0.276142 499.5 -2.18558e-08L500.5 2.18558e-08ZM500 317.333C498.527 317.333 497.333 318.527 497.333 320C497.333 321.473 498.527 322.667 500 322.667C501.473 322.667 502.667 321.473 502.667 320C502.667 318.527 501.473 317.333 500 317.333ZM499.5 -2.18558e-08L499.5 320L500.5 320L500.5 2.18558e-08L499.5 -2.18558e-08Z" fill="#74FBFD"/>
<path d="M500 322L500 855" stroke="#74FBFD" stroke-miterlimit="10" stroke-linecap="round" stroke-dasharray="5 5"/>
<path d="M530.5 2.18558e-08C530.5 -0.276142 530.276 -0.5 530 -0.5C529.724 -0.5 529.5 -0.276142 529.5 -2.18558e-08L530.5 2.18558e-08ZM530 199.333C528.527 199.333 527.333 200.527 527.333 202C527.333 203.473 528.527 204.667 530 204.667C531.473 204.667 532.667 203.473 532.667 202C532.667 200.527 531.473 199.333 530 199.333ZM529.5 -2.18558e-08L529.5 202L530.5 202L530.5 2.18558e-08L529.5 -2.18558e-08Z" fill="#74FBFD"/>
<path d="M530 204L530 855" stroke="#74FBFD" stroke-miterlimit="10" stroke-linecap="round" stroke-dasharray="5 5"/>
<path d="M560.5 2.18558e-08C560.5 -0.276142 560.276 -0.5 560 -0.5C559.724 -0.5 559.5 -0.276142 559.5 -2.18558e-08L560.5 2.18558e-08ZM560 419.333C558.527 419.333 557.333 420.527 557.333 422C557.333 423.473 558.527 424.667 560 424.667C561.473 424.667 562.667 423.473 562.667 422C562.667 420.527 561.473 419.333 560 419.333ZM559.5 -2.18558e-08L559.5 422L560.5 422L560.5 2.18558e-08L559.5 -2.18558e-08Z" fill="#74FBFD"/>
<path d="M560 424L560 855" stroke="#74FBFD" stroke-miterlimit="10" stroke-linecap="round" stroke-dasharray="5 5"/>
<path d="M590.5 2.18558e-08C590.5 -0.276142 590.276 -0.5 590 -0.5C589.724 -0.5 589.5 -0.276142 589.5 -2.18558e-08L590.5 2.18558e-08ZM590 497.333C588.527 497.333 587.333 498.527 587.333 500C587.333 501.473 588.527 502.667 590 502.667C591.473 502.667 592.667 501.473 592.667 500C592.667 498.527 591.473 497.333 590 497.333ZM589.5 -2.18558e-08L589.5 500L590.5 500L590.5 2.18558e-08L589.5 -2.18558e-08Z" fill="#74FBFD"/>
<path d="M590 502L590 855" stroke="#74FBFD" stroke-miterlimit="10" stroke-linecap="round" stroke-dasharray="5 5"/>
<path d="M620.5 2.18558e-08C620.5 -0.276142 620.276 -0.5 620 -0.5C619.724 -0.5 619.5 -0.276142 619.5 -2.18558e-08L620.5 2.18558e-08ZM620 387.333C618.527 387.333 617.333 388.527 617.333 390C617.333 391.473 618.527 392.667 620 392.667C621.473 392.667 622.667 391.473 622.667 390C622.667 388.527 621.473 387.333 620 387.333ZM619.5 -2.18558e-08L619.5 390L620.5 390L620.5 2.18558e-08L619.5 -2.18558e-08Z" fill="#74FBFD"/>
<path d="M620 392L620 855" stroke="#74FBFD" stroke-miterlimit="10" stroke-linecap="round" stroke-dasharray="5 5"/>
<path d="M650.5 2.18558e-08C650.5 -0.276142 650.276 -0.5 650 -0.5C649.724 -0.5 649.5 -0.276142 649.5 -2.18558e-08L650.5 2.18558e-08ZM650 119.333C648.527 119.333 647.333 120.527 647.333 122C647.333 123.473 648.527 124.667 650 124.667C651.473 124.667 652.667 123.473 652.667 122C652.667 120.527 651.473 119.333 650 119.333ZM649.5 -2.18558e-08L649.5 122L650.5 122L650.5 2.18558e-08L649.5 -2.18558e-08Z" fill="#74FBFD"/>
<path d="M650 124L650 855" stroke="#74FBFD" stroke-miterlimit="10" stroke-linecap="round" stroke-dasharray="5 5"/>
<path d="M680.5 2.18558e-08C680.5 -0.276142 680.276 -0.5 680 -0.5C679.724 -0.5 679.5 -0.276142 679.5 -2.18558e-08L680.5 2.18558e-08ZM680 419.333C678.527 419.333 677.333 420.527 677.333 422C677.333 423.473 678.527 424.667 680 424.667C681.473 424.667 682.667 423.473 682.667 422C682.667 420.527 681.473 419.333 680 419.333ZM679.5 -2.18558e-08L679.5 422L680.5 422L680.5 2.18558e-08L679.5 -2.18558e-08Z" fill="#74FBFD"/>
<path d="M680 424L680 855" stroke="#74FBFD" stroke-miterlimit="10" stroke-linecap="round" stroke-dasharray="5 5"/>
<path d="M710.5 2.18558e-08C710.5 -0.276142 710.276 -0.5 710 -0.5C709.724 -0.5 709.5 -0.276142 709.5 -2.18558e-08L710.5 2.18558e-08ZM710 317.333C708.527 317.333 707.333 318.527 707.333 320C707.333 321.473 708.527 322.667 710 322.667C711.473 322.667 712.667 321.473 712.667 320C712.667 318.527 711.473 317.333 710 317.333ZM709.5 -2.18558e-08L709.5 320L710.5 320L710.5 2.18558e-08L709.5 -2.18558e-08Z" fill="#74FBFD"/>
<path d="M710 322L710 855" stroke="#74FBFD" stroke-miterlimit="10" stroke-linecap="round" stroke-dasharray="5 5"/>
<path d="M740.5 2.18558e-08C740.5 -0.276142 740.276 -0.5 740 -0.5C739.724 -0.5 739.5 -0.276142 739.5 -2.18558e-08L740.5 2.18558e-08ZM740 277.333C738.527 277.333 737.333 278.527 737.333 280C737.333 281.473 738.527 282.667 740 282.667C741.473 282.667 742.667 281.473 742.667 280C742.667 278.527 741.473 277.333 740 277.333ZM739.5 -2.18558e-08L739.5 280L740.5 280L740.5 2.18558e-08L739.5 -2.18558e-08Z" fill="#74FBFD"/>
<path d="M740 282L740 855" stroke="#74FBFD" stroke-miterlimit="10" stroke-linecap="round" stroke-dasharray="5 5"/>
<path d="M770.5 2.18558e-08C770.5 -0.276142 770.276 -0.5 770 -0.5C769.724 -0.5 769.5 -0.276142 769.5 -2.18558e-08L770.5 2.18558e-08ZM770 169.333C768.527 169.333 767.333 170.527 767.333 172C767.333 173.473 768.527 174.667 770 174.667C771.473 174.667 772.667 173.473 772.667 172C772.667 170.527 771.473 169.333 770 169.333ZM769.5 -2.18558e-08L769.5 172L770.5 172L770.5 2.18558e-08L769.5 -2.18558e-08Z" fill="#74FBFD"/>
<path d="M770 174L770 855" stroke="#74FBFD" stroke-miterlimit="10" stroke-linecap="round" stroke-dasharray="5 5"/>
<path d="M800.5 2.18558e-08C800.5 -0.276142 800.276 -0.5 800 -0.5C799.724 -0.5 799.5 -0.276142 799.5 -2.18558e-08L800.5 2.18558e-08ZM800 389.333C798.527 389.333 797.333 390.527 797.333 392C797.333 393.473 798.527 394.667 800 394.667C801.473 394.667 802.667 393.473 802.667 392C802.667 390.527 801.473 389.333 800 389.333ZM799.5 -2.18558e-08L799.5 392L800.5 392L800.5 2.18558e-08L799.5 -2.18558e-08Z" fill="#74FBFD"/>
<path d="M800 394L800 855" stroke="#74FBFD" stroke-miterlimit="10" stroke-linecap="round" stroke-dasharray="5 5"/>
<path d="M830.5 2.18558e-08C830.5 -0.276142 830.276 -0.5 830 -0.5C829.724 -0.5 829.5 -0.276142 829.5 -2.18558e-08L830.5 2.18558e-08ZM830 497.333C828.527 497.333 827.333 498.527 827.333 500C827.333 501.473 828.527 502.667 830 502.667C831.473 502.667 832.667 501.473 832.667 500C832.667 498.527 831.473 497.333 830 497.333ZM829.5 -2.18558e-08L829.5 500L830.5 500L830.5 2.18558e-08L829.5 -2.18558e-08Z" fill="#74FBFD"/>
<path d="M830 502L830 855" stroke="#74FBFD" stroke-miterlimit="10" stroke-linecap="round" stroke-dasharray="5 5"/>
<path d="M860.5 2.18558e-08C860.5 -0.276142 860.276 -0.5 860 -0.5C859.724 -0.5 859.5 -0.276142 859.5 -2.18558e-08L860.5 2.18558e-08ZM860 197.333C858.527 197.333 857.333 198.527 857.333 200C857.333 201.473 858.527 202.667 860 202.667C861.473 202.667 862.667 201.473 862.667 200C862.667 198.527 861.473 197.333 860 197.333ZM859.5 -2.18558e-08L859.5 200L860.5 200L860.5 2.18558e-08L859.5 -2.18558e-08Z" fill="#74FBFD"/>
<path d="M860 202L860 855" stroke="#74FBFD" stroke-miterlimit="10" stroke-linecap="round" stroke-dasharray="5 5"/>
<path d="M890.5 2.18558e-08C890.5 -0.276142 890.276 -0.5 890 -0.5C889.724 -0.5 889.5 -0.276142 889.5 -2.18558e-08L890.5 2.18558e-08ZM890 277.333C888.527 277.333 887.333 278.527 887.333 280C887.333 281.473 888.527 282.667 890 282.667C891.473 282.667 892.667 281.473 892.667 280C892.667 278.527 891.473 277.333 890 277.333ZM889.5 -2.18558e-08L889.5 280L890.5 280L890.5 2.18558e-08L889.5 -2.18558e-08Z" fill="#74FBFD"/>
<path d="M890 282L890 855" stroke="#74FBFD" stroke-miterlimit="10" stroke-linecap="round" stroke-dasharray="5 5"/>
<path d="M920.5 2.18558e-08C920.5 -0.276142 920.276 -0.5 920 -0.5C919.724 -0.5 919.5 -0.276142 919.5 -2.18558e-08L920.5 2.18558e-08ZM920 59.3333C918.527 59.3333 917.333 60.5272 917.333 62C917.333 63.4728 918.527 64.6667 920 64.6667C921.473 64.6667 922.667 63.4728 922.667 62C922.667 60.5272 921.473 59.3333 920 59.3333ZM919.5 -2.18558e-08L919.5 62L920.5 62L920.5 2.18558e-08L919.5 -2.18558e-08Z" fill="#74FBFD"/>
<path d="M920 64L920 855" stroke="#74FBFD" stroke-miterlimit="10" stroke-linecap="round" stroke-dasharray="5 5"/>
<path d="M950.5 2.18558e-08C950.5 -0.276142 950.276 -0.5 950 -0.5C949.724 -0.5 949.5 -0.276142 949.5 -2.18558e-08L950.5 2.18558e-08ZM950 89.3333C948.527 89.3333 947.333 90.5272 947.333 92C947.333 93.4728 948.527 94.6667 950 94.6667C951.473 94.6667 952.667 93.4728 952.667 92C952.667 90.5272 951.473 89.3333 950 89.3333ZM949.5 -2.18558e-08L949.5 92L950.5 92L950.5 2.18558e-08L949.5 -2.18558e-08Z" fill="#74FBFD"/>
<path d="M950 94L950 855" stroke="#74FBFD" stroke-miterlimit="10" stroke-linecap="round" stroke-dasharray="5 5"/>
<path d="M980.5 2.18558e-08C980.5 -0.276142 980.276 -0.5 980 -0.5C979.724 -0.5 979.5 -0.276142 979.5 -2.18558e-08L980.5 2.18558e-08ZM980 59.3333C978.527 59.3333 977.333 60.5272 977.333 62C977.333 63.4728 978.527 64.6667 980 64.6667C981.473 64.6667 982.667 63.4728 982.667 62C982.667 60.5272 981.473 59.3333 980 59.3333ZM979.5 -2.18558e-08L979.5 62L980.5 62L980.5 2.18558e-08L979.5 -2.18558e-08Z" fill="#74FBFD"/>
<path d="M980 64L980 855" stroke="#74FBFD" stroke-miterlimit="10" stroke-linecap="round" stroke-dasharray="5 5"/>
<path d="M1010.5 2.18558e-08C1010.5 -0.276142 1010.28 -0.5 1010 -0.5C1009.72 -0.5 1009.5 -0.276142 1009.5 -2.18558e-08L1010.5 2.18558e-08ZM1010 339.333C1008.53 339.333 1007.33 340.527 1007.33 342C1007.33 343.473 1008.53 344.667 1010 344.667C1011.47 344.667 1012.67 343.473 1012.67 342C1012.67 340.527 1011.47 339.333 1010 339.333ZM1009.5 -2.18558e-08L1009.5 342L1010.5 342L1010.5 2.18558e-08L1009.5 -2.18558e-08Z" fill="#74FBFD"/>
<path d="M1010 344L1010 855" stroke="#74FBFD" stroke-miterlimit="10" stroke-linecap="round" stroke-dasharray="5 5"/>
<path d="M1040.5 2.18558e-08C1040.5 -0.276142 1040.28 -0.5 1040 -0.5C1039.72 -0.5 1039.5 -0.276142 1039.5 -2.18558e-08L1040.5 2.18558e-08ZM1040 89.3333C1038.53 89.3333 1037.33 90.5272 1037.33 92C1037.33 93.4728 1038.53 94.6667 1040 94.6667C1041.47 94.6667 1042.67 93.4728 1042.67 92C1042.67 90.5272 1041.47 89.3333 1040 89.3333ZM1039.5 -2.18558e-08L1039.5 92L1040.5 92L1040.5 2.18558e-08L1039.5 -2.18558e-08Z" fill="#74FBFD"/>
<path d="M1040 94L1040 855" stroke="#74FBFD" stroke-miterlimit="10" stroke-linecap="round" stroke-dasharray="5 5"/>
<path d="M1070.5 2.18558e-08C1070.5 -0.276142 1070.28 -0.5 1070 -0.5C1069.72 -0.5 1069.5 -0.276142 1069.5 -2.18558e-08L1070.5 2.18558e-08ZM1070 277.333C1068.53 277.333 1067.33 278.527 1067.33 280C1067.33 281.473 1068.53 282.667 1070 282.667C1071.47 282.667 1072.67 281.473 1072.67 280C1072.67 278.527 1071.47 277.333 1070 277.333ZM1069.5 -2.18558e-08L1069.5 280L1070.5 280L1070.5 2.18558e-08L1069.5 -2.18558e-08Z" fill="#74FBFD"/>
<path d="M1070 282L1070 855" stroke="#74FBFD" stroke-miterlimit="10" stroke-linecap="round" stroke-dasharray="5 5"/>
<path d="M1100.5 2.18558e-08C1100.5 -0.276142 1100.28 -0.5 1100 -0.5C1099.72 -0.5 1099.5 -0.276142 1099.5 -2.18558e-08L1100.5 2.18558e-08ZM1100 547.333C1098.53 547.333 1097.33 548.527 1097.33 550C1097.33 551.473 1098.53 552.667 1100 552.667C1101.47 552.667 1102.67 551.473 1102.67 550C1102.67 548.527 1101.47 547.333 1100 547.333ZM1099.5 -2.18558e-08L1099.5 550L1100.5 550L1100.5 2.18558e-08L1099.5 -2.18558e-08Z" fill="#74FBFD"/>
<path d="M1100 552L1100 855" stroke="#74FBFD" stroke-miterlimit="10" stroke-linecap="round" stroke-dasharray="5 5"/>
<path d="M1130.5 2.18558e-08C1130.5 -0.276142 1130.28 -0.5 1130 -0.5C1129.72 -0.5 1129.5 -0.276142 1129.5 -2.18558e-08L1130.5 2.18558e-08ZM1130 437.333C1128.53 437.333 1127.33 438.527 1127.33 440C1127.33 441.473 1128.53 442.667 1130 442.667C1131.47 442.667 1132.67 441.473 1132.67 440C1132.67 438.527 1131.47 437.333 1130 437.333ZM1129.5 -2.18558e-08L1129.5 440L1130.5 440L1130.5 2.18558e-08L1129.5 -2.18558e-08Z" fill="#74FBFD"/>
<path d="M1130 442L1130 855" stroke="#74FBFD" stroke-miterlimit="10" stroke-linecap="round" stroke-dasharray="5 5"/>
<path d="M1160.5 2.18558e-08C1160.5 -0.276142 1160.28 -0.5 1160 -0.5C1159.72 -0.5 1159.5 -0.276142 1159.5 -2.18558e-08L1160.5 2.18558e-08ZM1160 317.333C1158.53 317.333 1157.33 318.527 1157.33 320C1157.33 321.473 1158.53 322.667 1160 322.667C1161.47 322.667 1162.67 321.473 1162.67 320C1162.67 318.527 1161.47 317.333 1160 317.333ZM1159.5 -2.18558e-08L1159.5 320L1160.5 320L1160.5 2.18558e-08L1159.5 -2.18558e-08Z" fill="#74FBFD"/>
<path d="M1160 322L1160 855" stroke="#74FBFD" stroke-miterlimit="10" stroke-linecap="round" stroke-dasharray="5 5"/>
<path d="M1190.5 2.18558e-08C1190.5 -0.276142 1190.28 -0.5 1190 -0.5C1189.72 -0.5 1189.5 -0.276142 1189.5 -2.18558e-08L1190.5 2.18558e-08ZM1190 389.333C1188.53 389.333 1187.33 390.527 1187.33 392C1187.33 393.473 1188.53 394.667 1190 394.667C1191.47 394.667 1192.67 393.473 1192.67 392C1192.67 390.527 1191.47 389.333 1190 389.333ZM1189.5 -2.18558e-08L1189.5 392L1190.5 392L1190.5 2.18558e-08L1189.5 -2.18558e-08Z" fill="#74FBFD"/>
<path d="M1190 394L1190 855" stroke="#74FBFD" stroke-miterlimit="10" stroke-linecap="round" stroke-dasharray="5 5"/>
<path d="M1220.5 2.18558e-08C1220.5 -0.276142 1220.28 -0.5 1220 -0.5C1219.72 -0.5 1219.5 -0.276142 1219.5 -2.18558e-08L1220.5 2.18558e-08ZM1220 479.333C1218.53 479.333 1217.33 480.527 1217.33 482C1217.33 483.473 1218.53 484.667 1220 484.667C1221.47 484.667 1222.67 483.473 1222.67 482C1222.67 480.527 1221.47 479.333 1220 479.333ZM1219.5 -2.18558e-08L1219.5 482L1220.5 482L1220.5 2.18558e-08L1219.5 -2.18558e-08Z" fill="#74FBFD"/>
<path d="M1220 484L1220 855" stroke="#74FBFD" stroke-miterlimit="10" stroke-linecap="round" stroke-dasharray="5 5"/>
<path d="M1250.5 2.18558e-08C1250.5 -0.276142 1250.28 -0.5 1250 -0.5C1249.72 -0.5 1249.5 -0.276142 1249.5 -2.18558e-08L1250.5 2.18558e-08ZM1250 519.333C1248.53 519.333 1247.33 520.527 1247.33 522C1247.33 523.473 1248.53 524.667 1250 524.667C1251.47 524.667 1252.67 523.473 1252.67 522C1252.67 520.527 1251.47 519.333 1250 519.333ZM1249.5 -2.18558e-08L1249.5 522L1250.5 522L1250.5 2.18558e-08L1249.5 -2.18558e-08Z" fill="#74FBFD"/>
<path d="M1250 524L1250 855" stroke="#74FBFD" stroke-miterlimit="10" stroke-linecap="round" stroke-dasharray="5 5"/>
<path d="M1280.5 2.18558e-08C1280.5 -0.276142 1280.28 -0.5 1280 -0.5C1279.72 -0.5 1279.5 -0.276142 1279.5 -2.18558e-08L1280.5 2.18558e-08ZM1280 389.333C1278.53 389.333 1277.33 390.527 1277.33 392C1277.33 393.473 1278.53 394.667 1280 394.667C1281.47 394.667 1282.67 393.473 1282.67 392C1282.67 390.527 1281.47 389.333 1280 389.333ZM1279.5 -2.18558e-08L1279.5 392L1280.5 392L1280.5 2.18558e-08L1279.5 -2.18558e-08Z" fill="#74FBFD"/>
<path d="M1280 394L1280 855" stroke="#74FBFD" stroke-miterlimit="10" stroke-linecap="round" stroke-dasharray="5 5"/>
<path d="M1310.5 2.18558e-08C1310.5 -0.276142 1310.28 -0.5 1310 -0.5C1309.72 -0.5 1309.5 -0.276142 1309.5 -2.18558e-08L1310.5 2.18558e-08ZM1310 317.333C1308.53 317.333 1307.33 318.527 1307.33 320C1307.33 321.473 1308.53 322.667 1310 322.667C1311.47 322.667 1312.67 321.473 1312.67 320C1312.67 318.527 1311.47 317.333 1310 317.333ZM1309.5 -2.18558e-08L1309.5 320L1310.5 320L1310.5 2.18558e-08L1309.5 -2.18558e-08Z" fill="#74FBFD"/>
<path d="M1310 322L1310 855" stroke="#74FBFD" stroke-miterlimit="10" stroke-linecap="round" stroke-dasharray="5 5"/>
<path d="M1340.5 2.18558e-08C1340.5 -0.276142 1340.28 -0.5 1340 -0.5C1339.72 -0.5 1339.5 -0.276142 1339.5 -2.18558e-08L1340.5 2.18558e-08ZM1340 317.333C1338.53 317.333 1337.33 318.527 1337.33 320C1337.33 321.473 1338.53 322.667 1340 322.667C1341.47 322.667 1342.67 321.473 1342.67 320C1342.67 318.527 1341.47 317.333 1340 317.333ZM1339.5 -2.18558e-08L1339.5 320L1340.5 320L1340.5 2.18558e-08L1339.5 -2.18558e-08Z" fill="#74FBFD"/>
<path d="M1340 322L1340 855" stroke="#74FBFD" stroke-miterlimit="10" stroke-linecap="round" stroke-dasharray="5 5"/>
<path d="M1370.5 2.18558e-08C1370.5 -0.276142 1370.28 -0.5 1370 -0.5C1369.72 -0.5 1369.5 -0.276142 1369.5 -2.18558e-08L1370.5 2.18558e-08ZM1370 209.333C1368.53 209.333 1367.33 210.527 1367.33 212C1367.33 213.473 1368.53 214.667 1370 214.667C1371.47 214.667 1372.67 213.473 1372.67 212C1372.67 210.527 1371.47 209.333 1370 209.333ZM1369.5 -2.18558e-08L1369.5 212L1370.5 212L1370.5 2.18558e-08L1369.5 -2.18558e-08Z" fill="#74FBFD"/>
<path d="M1370 214L1370 855" stroke="#74FBFD" stroke-miterlimit="10" stroke-linecap="round" stroke-dasharray="5 5"/>
<path d="M1400.5 2.18558e-08C1400.5 -0.276142 1400.28 -0.5 1400 -0.5C1399.72 -0.5 1399.5 -0.276142 1399.5 -2.18558e-08L1400.5 2.18558e-08ZM1400 119.333C1398.53 119.333 1397.33 120.527 1397.33 122C1397.33 123.473 1398.53 124.667 1400 124.667C1401.47 124.667 1402.67 123.473 1402.67 122C1402.67 120.527 1401.47 119.333 1400 119.333ZM1399.5 -2.18558e-08L1399.5 122L1400.5 122L1400.5 2.18558e-08L1399.5 -2.18558e-08Z" fill="#74FBFD"/>
<path d="M1400 124L1400 855" stroke="#74FBFD" stroke-miterlimit="10" stroke-linecap="round" stroke-dasharray="5 5"/>
</g>
</svg>
