<svg width="48" height="48" viewBox="0 0 48 48" fill="none" xmlns="http://www.w3.org/2000/svg">
<path fill-rule="evenodd" clip-rule="evenodd" d="M2 24C2 11.8497 11.8497 2 24 2C36.1503 2 46 11.8497 46 24C46 36.1503 36.1503 46 24 46C11.8497 46 2 36.1503 2 24ZM9.93621 12.7646C7.47295 15.844 6 19.75 6 24C6 28.25 7.47295 32.156 9.9362 35.2354L15.6568 29.5148C14.6098 27.9339 14 26.0382 14 24C14 21.9618 14.6098 20.0661 15.6568 18.4852L9.93621 12.7646ZM18.4852 32.3432L12.7646 38.0638C15.844 40.5271 19.75 42 24 42C28.25 42 32.156 40.5271 35.2354 38.0638L29.5148 32.3432C27.9339 33.3902 26.0382 34 24 34C21.9618 34 20.0661 33.3902 18.4852 32.3432ZM42 24C42 28.25 40.5271 32.156 38.0638 35.2354L32.3432 29.5148C33.3902 27.9339 34 26.0382 34 24C34 21.9618 33.3902 20.0661 32.3432 18.4852L38.0638 12.7646C40.5271 15.844 42 19.75 42 24ZM35.2354 9.9362L29.5148 15.6568C27.9339 14.6098 26.0382 14 24 14C21.9618 14 20.0661 14.6098 18.4852 15.6568L12.7646 9.93619C15.844 7.47294 19.75 6 24 6C28.25 6 32.156 7.47294 35.2354 9.9362ZM24 18C20.6863 18 18 20.6863 18 24C18 27.3137 20.6863 30 24 30C27.3137 30 30 27.3137 30 24C30 20.6863 27.3137 18 24 18Z" fill="#FD8467"/>
</svg>
