<svg width="48" height="48" viewBox="0 0 48 48" fill="none" xmlns="http://www.w3.org/2000/svg">
<path fill-rule="evenodd" clip-rule="evenodd" d="M16 12C16 14.2091 14.2091 16 12 16C9.79086 16 8 14.2091 8 12C8 9.79086 9.79086 8 12 8C14.2091 8 16 9.79086 16 12ZM14 19.748C17.4505 18.8599 20 15.7277 20 12C20 7.58172 16.4183 4 12 4C7.58172 4 4 7.58172 4 12C4 15.7277 6.54955 18.8599 10 19.748L10 32C10 33.5913 10.6321 35.1174 11.7574 36.2426C12.8826 37.3679 14.4087 38 16 38H22C23.1046 38 24 37.1046 24 36C24 34.8954 23.1046 34 22 34H16C15.4696 34 14.9609 33.7893 14.5858 33.4142C14.2107 33.0391 14 32.5304 14 32L14 19.748ZM32 36C32 33.7909 33.7909 32 36 32C38.2091 32 40 33.7909 40 36C40 38.2091 38.2091 40 36 40C33.7909 40 32 38.2091 32 36ZM28 36C28 32.2723 30.5495 29.1401 34 28.252V16C34 15.4696 33.7893 14.9609 33.4142 14.5858C33.0391 14.2107 32.5304 14 32 14H26C24.8954 14 24 13.1046 24 12C24 10.8954 24.8954 10 26 10H32C33.5913 10 35.1174 10.6321 36.2426 11.7574C37.3679 12.8826 38 14.4087 38 16V28.252C41.4505 29.1401 44 32.2723 44 36C44 40.4183 40.4183 44 36 44C31.5817 44 28 40.4183 28 36Z" fill="#FD8467"/>
</svg>
