<svg width="48" height="48" viewBox="0 0 48 48" fill="none" xmlns="http://www.w3.org/2000/svg">
<path fill-rule="evenodd" clip-rule="evenodd" d="M32.0609 4.20593C35.2616 3.34828 38.5517 5.24778 39.4093 8.44857L39.908 10.3097C42.2863 11.1069 44 13.3533 44 16V20H45.0233C45.5627 20 46 20.4373 46 20.9767V31.0233C46 31.5627 45.5627 32 45.0233 32H44V36C44 39.3137 41.3137 42 38 42H10C6.68629 42 4 39.3137 4 36V16C4 12.6863 6.68629 10 10 10H10.4371L32.0609 4.20593ZM25.8919 10H35.6839L35.5456 9.48385C35.2597 8.41692 34.1631 7.78375 33.0961 8.06964L25.8919 10ZM38 32H40V36C40 37.1046 39.1046 38 38 38H10C8.89543 38 8 37.1046 8 36V16C8 14.8954 8.89543 14 10 14H38C39.1046 14 40 14.8954 40 16V20H38C34.6863 20 32 22.6863 32 26C32 29.3137 34.6863 32 38 32ZM38 24C36.8954 24 36 24.8954 36 26C36 27.1046 36.8954 28 38 28H42V24H38Z" fill="#FD8467"/>
</svg>
