<svg width="32" height="32" viewBox="0 0 32 32" fill="none" xmlns="http://www.w3.org/2000/svg">
<path d="M2.5 10.9149C2.60992 10.8819 2.78579 10.8489 3.02762 10.816C3.26944 10.772 3.51676 10.75 3.76958 10.75C4.0114 10.75 4.22574 10.7665 4.41261 10.7995C4.61046 10.8324 4.77534 10.8984 4.90725 10.9973C5.03915 11.0962 5.13808 11.2336 5.20403 11.4095C5.26998 11.5744 5.30296 11.7942 5.30296 12.069V13.6849C5.57776 13.5749 5.83607 13.498 6.07789 13.454C6.33071 13.4101 6.60551 13.3881 6.90229 13.3881C7.42991 13.3881 7.93004 13.4815 8.4027 13.6684C8.87536 13.8552 9.29305 14.13 9.65579 14.4928C10.0185 14.8445 10.3043 15.2842 10.5132 15.8118C10.722 16.3394 10.8264 16.9495 10.8264 17.642C10.8264 18.3565 10.7165 18.983 10.4967 19.5216C10.2878 20.0492 9.99104 20.4889 9.60632 20.8407C9.2216 21.1924 8.74895 21.4617 8.18836 21.6486C7.63876 21.8244 7.0287 21.9124 6.35819 21.9124C5.63272 21.9124 5.01717 21.8244 4.51153 21.6486C4.0059 21.4837 3.57722 21.2748 3.22547 21.022C2.74182 20.6813 2.5 20.2416 2.5 19.703V10.9149ZM6.35819 19.703C6.86382 19.703 7.25404 19.5326 7.52884 19.1919C7.81463 18.8401 7.95752 18.3235 7.95752 17.642C7.95752 16.9495 7.81463 16.4329 7.52884 16.0921C7.24304 15.7514 6.85833 15.581 6.37468 15.581C6.15484 15.581 5.96248 15.603 5.7976 15.6469C5.64371 15.6909 5.47333 15.7569 5.28647 15.8448V19.4392C5.40738 19.5161 5.55028 19.5821 5.71516 19.637C5.89103 19.681 6.10537 19.703 6.35819 19.703Z" fill="#FD8467"/>
<path d="M15.3754 11.3765C16.002 11.3765 16.5571 11.459 17.0407 11.6239C17.5244 11.7778 17.9366 11.9921 18.2773 12.2669C18.6181 12.5417 18.8764 12.866 19.0523 13.2397C19.2281 13.6134 19.3161 14.0146 19.3161 14.4433C19.3161 15.5975 18.662 16.6967 17.354 17.7409L15.1941 19.4721H19.1512C19.2171 19.5931 19.2776 19.7469 19.3326 19.9338C19.3985 20.1207 19.4315 20.324 19.4315 20.5439C19.4315 20.9396 19.3435 21.2254 19.1677 21.4012C18.9918 21.5661 18.761 21.6486 18.4752 21.6486H12.7538C12.512 21.4837 12.3197 21.2748 12.1768 21.022C12.0449 20.7582 11.9789 20.4504 11.9789 20.0987C11.9789 19.725 12.0559 19.4117 12.2097 19.1589C12.3636 18.8951 12.534 18.6862 12.7209 18.5323L14.9962 16.5867C15.282 16.3449 15.5183 16.1306 15.7052 15.9437C15.8921 15.7459 16.0404 15.57 16.1504 15.4161C16.2713 15.2622 16.3537 15.1193 16.3977 14.9874C16.4526 14.8555 16.4801 14.7291 16.4801 14.6082C16.4801 14.3004 16.3427 14.0586 16.0679 13.8827C15.8041 13.7068 15.4744 13.6189 15.0787 13.6189C14.639 13.6189 14.2433 13.6904 13.8915 13.8333C13.5508 13.9652 13.265 14.1081 13.0341 14.2619C12.8473 14.13 12.6934 13.9652 12.5725 13.7673C12.4516 13.5694 12.3911 13.3386 12.3911 13.0748C12.3911 12.5032 12.6604 12.08 13.199 11.8052C13.7376 11.5194 14.4631 11.3765 15.3754 11.3765Z" fill="#FD8467"/>
<path d="M21.1733 10.9149C21.2833 10.8819 21.4591 10.8489 21.701 10.816C21.9428 10.772 22.1901 10.75 22.4429 10.75C22.6847 10.75 22.8991 10.7665 23.0859 10.7995C23.2838 10.8324 23.4487 10.8984 23.5806 10.9973C23.7125 11.0962 23.8114 11.2336 23.8774 11.4095C23.9433 11.5744 23.9763 11.7942 23.9763 12.069V13.6849C24.2511 13.5749 24.5094 13.498 24.7512 13.454C25.0041 13.4101 25.2789 13.3881 25.5756 13.3881C26.1033 13.3881 26.6034 13.4815 27.076 13.6684C27.5487 13.8552 27.9664 14.13 28.3291 14.4928C28.6919 14.8445 28.9777 15.2842 29.1865 15.8118C29.3954 16.3394 29.4998 16.9495 29.4998 17.642C29.4998 18.3565 29.3899 18.983 29.17 19.5216C28.9612 20.0492 28.6644 20.4889 28.2797 20.8407C27.8949 21.1924 27.4223 21.4617 26.8617 21.6486C26.3121 21.8244 25.702 21.9124 25.0315 21.9124C24.3061 21.9124 23.6905 21.8244 23.1849 21.6486C22.6792 21.4837 22.2506 21.2748 21.8988 21.022C21.4152 20.6813 21.1733 20.2416 21.1733 19.703V10.9149ZM25.0315 19.703C25.5372 19.703 25.9274 19.5326 26.2022 19.1919C26.488 18.8401 26.6309 18.3235 26.6309 17.642C26.6309 16.9495 26.488 16.4329 26.2022 16.0921C25.9164 15.7514 25.5317 15.581 25.048 15.581C24.8282 15.581 24.6358 15.603 24.4709 15.6469C24.3171 15.6909 24.1467 15.7569 23.9598 15.8448V19.4392C24.0807 19.5161 24.2236 19.5821 24.3885 19.637C24.5644 19.681 24.7787 19.703 25.0315 19.703Z" fill="#1F2227"/>
</svg>
