<svg width="198" height="24" viewBox="0 0 198 24" fill="none" xmlns="http://www.w3.org/2000/svg">
<path d="M0 1.98051C0.220083 1.91449 0.572215 1.84846 1.0564 1.78244C1.54058 1.69441 2.03576 1.65039 2.54195 1.65039C3.02614 1.65039 3.4553 1.6834 3.82944 1.74943C4.22558 1.81545 4.55571 1.9475 4.81981 2.14558C5.08391 2.34365 5.28198 2.61875 5.41403 2.97088C5.54608 3.30101 5.6121 3.74117 5.6121 4.29138V7.52659C6.16231 7.30651 6.67951 7.15245 7.16369 7.06442C7.66988 6.97639 8.22008 6.93237 8.81431 6.93237C9.8707 6.93237 10.8721 7.11944 11.8184 7.49358C12.7648 7.86772 13.6011 8.41793 14.3274 9.1442C15.0536 9.84846 15.6259 10.7288 16.044 11.7852C16.4622 12.8416 16.6713 14.063 16.6713 15.4496C16.6713 16.8801 16.4512 18.1346 16.011 19.213C15.5928 20.2694 14.9986 21.1497 14.2283 21.854C13.458 22.5582 12.5117 23.0974 11.3893 23.4716C10.2889 23.8237 9.0674 23.9998 7.7249 23.9998C6.27235 23.9998 5.03989 23.8237 4.02751 23.4716C3.01513 23.1414 2.15681 22.7233 1.45254 22.2171C0.484181 21.5348 0 20.6545 0 19.5761V1.98051ZM7.7249 19.5761C8.73728 19.5761 9.51857 19.235 10.0688 18.5527C10.641 17.8485 10.9271 16.8141 10.9271 15.4496C10.9271 14.063 10.641 13.0287 10.0688 12.3464C9.49656 11.6641 8.72627 11.323 7.75791 11.323C7.31774 11.323 6.9326 11.367 6.60248 11.4551C6.29436 11.5431 5.95323 11.6752 5.57909 11.8512V19.0479C5.82118 19.202 6.10729 19.334 6.43741 19.4441C6.78955 19.5321 7.21871 19.5761 7.7249 19.5761Z" fill="#FD8467"/>
<path d="M25.7793 2.90486C27.0338 2.90486 28.1452 3.06992 29.1135 3.40005C30.0819 3.70816 30.9072 4.13732 31.5895 4.68753C32.2717 5.23774 32.7889 5.88698 33.1411 6.63526C33.4932 7.38354 33.6693 8.18684 33.6693 9.04516C33.6693 11.356 32.3598 13.5569 29.7408 15.6476L25.4162 19.1139H33.3391C33.4712 19.356 33.5922 19.6641 33.7023 20.0383C33.8343 20.4124 33.9003 20.8196 33.9003 21.2597C33.9003 22.052 33.7243 22.6243 33.3721 22.9764C33.02 23.3065 32.5578 23.4716 31.9856 23.4716H20.5303C20.0461 23.1414 19.661 22.7233 19.3749 22.2171C19.1108 21.6889 18.9787 21.0727 18.9787 20.3684C18.9787 19.6201 19.1328 18.9929 19.4409 18.4867C19.749 17.9585 20.0902 17.5403 20.4643 17.2322L25.02 13.3368C25.5922 12.8526 26.0654 12.4234 26.4395 12.0493C26.8137 11.6531 27.1108 11.301 27.3309 10.9929C27.573 10.6848 27.738 10.3987 27.8261 10.1346C27.9361 9.87047 27.9911 9.61738 27.9911 9.37529C27.9911 8.75906 27.716 8.27488 27.1658 7.92274C26.6376 7.57061 25.9774 7.39454 25.1851 7.39454C24.3047 7.39454 23.5124 7.5376 22.8082 7.8237C22.1259 8.0878 21.5537 8.37391 21.0915 8.68203C20.7174 8.41793 20.4093 8.0878 20.1672 7.69166C19.9251 7.29551 19.8041 6.83333 19.8041 6.30514C19.8041 5.16071 20.3433 4.31339 21.4217 3.76318C22.5001 3.19097 23.9526 2.90486 25.7793 2.90486Z" fill="#FD8467"/>
<path d="M37.3884 1.98074C37.6084 1.91472 37.9606 1.84869 38.4448 1.78267C38.9289 1.69464 39.4241 1.65062 39.9303 1.65062C40.4145 1.65062 40.8437 1.68363 41.2178 1.74966C41.614 1.81568 41.9441 1.94773 42.2082 2.1458C42.4723 2.34388 42.6703 2.61898 42.8024 2.97111C42.9344 3.30124 43.0005 3.7414 43.0005 4.29161V7.52682C43.5507 7.30674 44.0679 7.15268 44.5521 7.06465C45.0582 6.97662 45.6084 6.9326 46.2027 6.9326C47.2591 6.9326 48.2604 7.11967 49.2068 7.49381C50.1532 7.86795 50.9895 8.41816 51.7157 9.14443C52.442 9.84869 53.0142 10.729 53.4324 11.7854C53.8505 12.8418 54.0596 14.0633 54.0596 15.4498C54.0596 16.8803 53.8395 18.1348 53.3994 19.2132C52.9812 20.2696 52.387 21.1499 51.6167 21.8542C50.8464 22.5585 49.9001 23.0977 48.7776 23.4718C47.6772 23.8239 46.4558 24 45.1133 24C43.6607 24 42.4283 23.8239 41.4159 23.4718C40.4035 23.1417 39.5452 22.7235 38.8409 22.2173C37.8725 21.5351 37.3884 20.6547 37.3884 19.5763V1.98074ZM45.1133 19.5763C46.1256 19.5763 46.9069 19.2352 47.4571 18.553C48.0294 17.8487 48.3155 16.8143 48.3155 15.4498C48.3155 14.0633 48.0294 13.0289 47.4571 12.3466C46.8849 11.6644 46.1146 11.3232 45.1463 11.3232C44.7061 11.3232 44.321 11.3673 43.9908 11.4553C43.6827 11.5433 43.3416 11.6754 42.9675 11.8514V19.0481C43.2095 19.2022 43.4957 19.3343 43.8258 19.4443C44.1779 19.5323 44.6071 19.5763 45.1133 19.5763Z" fill="#1F2227"/>
<path d="M73.5335 15.4498C73.5335 16.8143 73.3245 18.0358 72.9063 19.1142C72.4882 20.1706 71.8939 21.0619 71.1236 21.7882C70.3754 22.5144 69.473 23.0647 68.4166 23.4388C67.3602 23.8129 66.1828 24 64.8843 24C63.5858 24 62.4084 23.8019 61.352 23.4058C60.2956 23.0096 59.3822 22.4484 58.612 21.7221C57.8637 20.9739 57.2805 20.0715 56.8623 19.0151C56.4441 17.9587 56.2351 16.7703 56.2351 15.4498C56.2351 14.1513 56.4441 12.9739 56.8623 11.9175C57.2805 10.8611 57.8637 9.96974 58.612 9.24347C59.3822 8.49519 60.2956 7.92297 61.352 7.52682C62.4084 7.13067 63.5858 6.9326 64.8843 6.9326C66.1828 6.9326 67.3602 7.14168 68.4166 7.55983C69.473 7.95598 70.3754 8.5282 71.1236 9.27648C71.8939 10.0028 72.4882 10.8941 72.9063 11.9505C73.3245 13.0069 73.5335 14.1733 73.5335 15.4498ZM61.9792 15.4498C61.9792 16.7923 62.2323 17.8267 62.7385 18.553C63.2667 19.2572 63.993 19.6094 64.9173 19.6094C65.8417 19.6094 66.5459 19.2462 67.0301 18.5199C67.5363 17.7937 67.7894 16.7703 67.7894 15.4498C67.7894 14.1293 67.5363 13.1169 67.0301 12.4127C66.5239 11.6864 65.8087 11.3232 64.8843 11.3232C63.96 11.3232 63.2447 11.6864 62.7385 12.4127C62.2323 13.1169 61.9792 14.1293 61.9792 15.4498Z" fill="#1F2227"/>
<path d="M86.5732 13.304C86.5732 12.6217 86.3751 12.1265 85.9789 11.8184C85.6048 11.4883 85.0876 11.3232 84.4274 11.3232C83.9872 11.3232 83.547 11.3783 83.1069 11.4883C82.6887 11.5984 82.3256 11.7634 82.0174 11.9835V23.4388C81.7974 23.5048 81.4452 23.5708 80.9611 23.6369C80.4989 23.7029 80.0147 23.7359 79.5085 23.7359C79.0243 23.7359 78.5842 23.7029 78.188 23.6369C77.8139 23.5708 77.4948 23.4388 77.2307 23.2407C76.9666 23.0426 76.7575 22.7785 76.6034 22.4484C76.4714 22.0963 76.4053 21.6451 76.4053 21.0949V11.1912C76.4053 10.597 76.5264 10.1128 76.7685 9.73865C77.0326 9.36451 77.3847 9.02338 77.8249 8.71527C78.5732 8.18707 79.5085 7.75791 80.6309 7.42779C81.7754 7.09766 83.0408 6.9326 84.4274 6.9326C86.9143 6.9326 88.829 7.4828 90.1715 8.58322C91.514 9.66162 92.1853 11.1692 92.1853 13.1059V23.4388C91.9652 23.5048 91.613 23.5708 91.1289 23.6369C90.6667 23.7029 90.1825 23.7359 89.6763 23.7359C89.1921 23.7359 88.752 23.7029 88.3558 23.6369C87.9817 23.5708 87.6626 23.4388 87.3985 23.2407C87.1344 23.0426 86.9253 22.7785 86.7712 22.4484C86.6392 22.0963 86.5732 21.6451 86.5732 21.0949V13.304Z" fill="#1F2227"/>
<path d="M95.0924 15.4498C95.0924 13.9972 95.3125 12.7428 95.7526 11.6864C96.1928 10.608 96.798 9.71664 97.5683 9.01238C98.3606 8.30812 99.274 7.79092 100.308 7.4608C101.365 7.10867 102.498 6.9326 103.709 6.9326C104.149 6.9326 104.578 6.97662 104.996 7.06465C105.414 7.13067 105.755 7.21871 106.019 7.32875V1.98074C106.24 1.91472 106.592 1.84869 107.076 1.78267C107.56 1.69464 108.055 1.65062 108.561 1.65062C109.046 1.65062 109.475 1.68363 109.849 1.74966C110.245 1.81568 110.575 1.94773 110.839 2.1458C111.103 2.34388 111.301 2.61898 111.434 2.97111C111.566 3.30124 111.632 3.7414 111.632 4.29161V19.9395C111.632 20.9739 111.147 21.7992 110.179 22.4154C109.541 22.8336 108.715 23.1967 107.703 23.5048C106.691 23.8349 105.524 24 104.204 24C102.773 24 101.486 23.8019 100.341 23.4058C99.2189 23.0096 98.2616 22.4374 97.4693 21.6891C96.699 20.9409 96.1048 20.0495 95.6866 19.0151C95.2905 17.9587 95.0924 16.7703 95.0924 15.4498ZM104.468 11.3232C103.279 11.3232 102.366 11.6644 101.728 12.3466C101.09 13.0289 100.771 14.0633 100.771 15.4498C100.771 16.8143 101.068 17.8487 101.662 18.553C102.256 19.2352 103.114 19.5763 104.237 19.5763C104.633 19.5763 104.985 19.5213 105.293 19.4113C105.623 19.2792 105.876 19.1362 106.053 18.9821V11.7194C105.612 11.4553 105.084 11.3232 104.468 11.3232Z" fill="#1F2227"/>
<path d="M122.129 19.9065C122.503 19.9065 122.911 19.8735 123.351 19.8074C123.813 19.7194 124.154 19.6094 124.374 19.4773V16.8363L121.997 17.0344C121.381 17.0784 120.875 17.2105 120.479 17.4305C120.082 17.6506 119.884 17.9807 119.884 18.4209C119.884 18.8611 120.049 19.2242 120.38 19.5103C120.732 19.7744 121.315 19.9065 122.129 19.9065ZM121.865 6.9326C123.054 6.9326 124.132 7.05364 125.1 7.29574C126.091 7.53783 126.927 7.91197 127.609 8.41816C128.314 8.90234 128.853 9.52957 129.227 10.2999C129.601 11.0481 129.788 11.9395 129.788 12.9739V20.3686C129.788 20.9409 129.623 21.414 129.293 21.7882C128.985 22.1403 128.611 22.4484 128.171 22.7125C126.74 23.5708 124.726 24 122.129 24C120.963 24 119.906 23.89 118.96 23.6699C118.036 23.4498 117.232 23.1197 116.55 22.6795C115.89 22.2393 115.373 21.6781 114.999 20.9959C114.646 20.3136 114.47 19.5213 114.47 18.619C114.47 17.1004 114.922 15.934 115.824 15.1197C116.726 14.3054 118.124 13.7992 120.016 13.6011L124.341 13.1389V12.9078C124.341 12.2696 124.055 11.8184 123.483 11.5543C122.933 11.2682 122.129 11.1252 121.073 11.1252C120.237 11.1252 119.422 11.2132 118.63 11.3893C117.838 11.5653 117.122 11.7854 116.484 12.0495C116.198 11.8514 115.956 11.5543 115.758 11.1582C115.56 10.74 115.461 10.3109 115.461 9.8707C115.461 9.29849 115.593 8.84732 115.857 8.5172C116.143 8.16506 116.572 7.86795 117.144 7.62586C117.783 7.38377 118.531 7.2077 119.389 7.09766C120.27 6.98762 121.095 6.9326 121.865 6.9326Z" fill="#1F2227"/>
<path d="M133.221 2.97111C133.221 2.1348 133.496 1.43054 134.047 0.858321C134.619 0.286107 135.367 0 136.292 0C137.216 0 137.953 0.286107 138.503 0.858321C139.076 1.43054 139.362 2.1348 139.362 2.97111C139.362 3.80743 139.076 4.51169 138.503 5.08391C137.953 5.65612 137.216 5.94223 136.292 5.94223C135.367 5.94223 134.619 5.65612 134.047 5.08391C133.496 4.51169 133.221 3.80743 133.221 2.97111ZM139.098 23.4388C138.856 23.4828 138.492 23.5378 138.008 23.6039C137.546 23.6919 137.073 23.7359 136.589 23.7359C136.104 23.7359 135.664 23.7029 135.268 23.6369C134.894 23.5708 134.575 23.4388 134.311 23.2407C134.047 23.0426 133.838 22.7785 133.684 22.4484C133.552 22.0963 133.485 21.6451 133.485 21.0949V7.65887C133.728 7.61485 134.08 7.55983 134.542 7.49381C135.026 7.40578 135.51 7.36176 135.994 7.36176C136.479 7.36176 136.908 7.39477 137.282 7.4608C137.678 7.52682 138.008 7.65887 138.272 7.85695C138.536 8.05502 138.734 8.33012 138.867 8.68226C139.021 9.01238 139.098 9.45254 139.098 10.0028V23.4388Z" fill="#1F2227"/>
<rect x="146.362" y="2" width="51" height="20" rx="10" fill="#FEDED7"/>
<path d="M156.317 13.7598C156.349 14.3294 156.483 14.792 156.72 15.1475C157.171 15.8128 157.967 16.1455 159.106 16.1455C159.616 16.1455 160.081 16.0726 160.5 15.9268C161.312 15.6442 161.717 15.1383 161.717 14.4092C161.717 13.8623 161.546 13.4727 161.204 13.2402C160.858 13.0124 160.316 12.8141 159.578 12.6455L158.217 12.3379C157.328 12.1374 156.7 11.9163 156.33 11.6748C155.692 11.2555 155.373 10.6289 155.373 9.79492C155.373 8.89258 155.686 8.15202 156.31 7.57324C156.934 6.99447 157.818 6.70508 158.962 6.70508C160.015 6.70508 160.908 6.96029 161.642 7.4707C162.38 7.97656 162.749 8.78776 162.749 9.9043H161.471C161.403 9.36654 161.257 8.9541 161.034 8.66699C160.619 8.1429 159.915 7.88086 158.921 7.88086C158.119 7.88086 157.543 8.04948 157.192 8.38672C156.841 8.72396 156.665 9.11589 156.665 9.5625C156.665 10.0547 156.87 10.4147 157.281 10.6426C157.55 10.7884 158.158 10.9707 159.106 11.1895L160.514 11.5107C161.193 11.6657 161.717 11.8776 162.086 12.1465C162.724 12.6159 163.043 13.2972 163.043 14.1904C163.043 15.3024 162.638 16.0977 161.827 16.5762C161.02 17.0547 160.081 17.2939 159.01 17.2939C157.761 17.2939 156.784 16.9749 156.078 16.3369C155.371 15.7035 155.025 14.8444 155.038 13.7598H156.317ZM165.545 15.0518C165.545 15.4072 165.675 15.6875 165.935 15.8926C166.195 16.0977 166.502 16.2002 166.858 16.2002C167.291 16.2002 167.71 16.0999 168.116 15.8994C168.799 15.5667 169.141 15.0221 169.141 14.2656V13.2744C168.991 13.3701 168.797 13.4499 168.56 13.5137C168.323 13.5775 168.091 13.623 167.863 13.6504L167.118 13.7461C166.671 13.8053 166.336 13.8988 166.113 14.0264C165.734 14.2406 165.545 14.5824 165.545 15.0518ZM168.526 12.5635C168.808 12.527 168.997 12.4085 169.093 12.208C169.148 12.0986 169.175 11.9414 169.175 11.7363C169.175 11.3171 169.025 11.014 168.724 10.8271C168.428 10.6357 168.002 10.54 167.446 10.54C166.803 10.54 166.347 10.7132 166.078 11.0596C165.928 11.251 165.83 11.5358 165.785 11.9141H164.636C164.659 11.0117 164.951 10.3851 165.511 10.0342C166.076 9.67871 166.73 9.50098 167.473 9.50098C168.334 9.50098 169.034 9.66504 169.572 9.99316C170.105 10.3213 170.371 10.8317 170.371 11.5244V15.7422C170.371 15.8698 170.397 15.9723 170.447 16.0498C170.501 16.1273 170.613 16.166 170.782 16.166C170.836 16.166 170.898 16.1637 170.966 16.1592C171.035 16.1501 171.107 16.1387 171.185 16.125V17.0342C170.994 17.0889 170.848 17.123 170.747 17.1367C170.647 17.1504 170.51 17.1572 170.337 17.1572C169.913 17.1572 169.606 17.0068 169.414 16.7061C169.314 16.5465 169.244 16.321 169.203 16.0293C168.952 16.3574 168.592 16.6423 168.122 16.8838C167.653 17.1253 167.136 17.2461 166.571 17.2461C165.892 17.2461 165.336 17.041 164.903 16.6309C164.474 16.2161 164.26 15.6989 164.26 15.0791C164.26 14.4001 164.472 13.8737 164.896 13.5C165.32 13.1263 165.876 12.8962 166.564 12.8096L168.526 12.5635ZM173.338 15.0518C173.338 15.4072 173.468 15.6875 173.728 15.8926C173.988 16.0977 174.295 16.2002 174.651 16.2002C175.084 16.2002 175.503 16.0999 175.909 15.8994C176.592 15.5667 176.934 15.0221 176.934 14.2656V13.2744C176.784 13.3701 176.59 13.4499 176.353 13.5137C176.116 13.5775 175.884 13.623 175.656 13.6504L174.911 13.7461C174.464 13.8053 174.129 13.8988 173.906 14.0264C173.527 14.2406 173.338 14.5824 173.338 15.0518ZM176.319 12.5635C176.601 12.527 176.79 12.4085 176.886 12.208C176.941 12.0986 176.968 11.9414 176.968 11.7363C176.968 11.3171 176.818 11.014 176.517 10.8271C176.221 10.6357 175.795 10.54 175.239 10.54C174.596 10.54 174.14 10.7132 173.871 11.0596C173.721 11.251 173.623 11.5358 173.578 11.9141H172.429C172.452 11.0117 172.744 10.3851 173.304 10.0342C173.869 9.67871 174.523 9.50098 175.266 9.50098C176.127 9.50098 176.827 9.66504 177.365 9.99316C177.898 10.3213 178.164 10.8317 178.164 11.5244V15.7422C178.164 15.8698 178.189 15.9723 178.24 16.0498C178.294 16.1273 178.406 16.166 178.575 16.166C178.629 16.166 178.691 16.1637 178.759 16.1592C178.828 16.1501 178.9 16.1387 178.978 16.125V17.0342C178.786 17.0889 178.641 17.123 178.54 17.1367C178.44 17.1504 178.303 17.1572 178.13 17.1572C177.706 17.1572 177.399 17.0068 177.207 16.7061C177.107 16.5465 177.036 16.321 176.995 16.0293C176.745 16.3574 176.385 16.6423 175.915 16.8838C175.446 17.1253 174.929 17.2461 174.364 17.2461C173.685 17.2461 173.129 17.041 172.696 16.6309C172.267 16.2161 172.053 15.6989 172.053 15.0791C172.053 14.4001 172.265 13.8737 172.689 13.5C173.113 13.1263 173.669 12.8962 174.357 12.8096L176.319 12.5635ZM181.241 13.7598C181.273 14.3294 181.407 14.792 181.644 15.1475C182.095 15.8128 182.89 16.1455 184.03 16.1455C184.54 16.1455 185.005 16.0726 185.424 15.9268C186.235 15.6442 186.641 15.1383 186.641 14.4092C186.641 13.8623 186.47 13.4727 186.128 13.2402C185.782 13.0124 185.24 12.8141 184.501 12.6455L183.141 12.3379C182.252 12.1374 181.623 11.9163 181.254 11.6748C180.616 11.2555 180.297 10.6289 180.297 9.79492C180.297 8.89258 180.609 8.15202 181.234 7.57324C181.858 6.99447 182.742 6.70508 183.886 6.70508C184.939 6.70508 185.832 6.96029 186.566 7.4707C187.304 7.97656 187.673 8.78776 187.673 9.9043H186.395C186.327 9.36654 186.181 8.9541 185.957 8.66699C185.543 8.1429 184.839 7.88086 183.845 7.88086C183.043 7.88086 182.467 8.04948 182.116 8.38672C181.765 8.72396 181.589 9.11589 181.589 9.5625C181.589 10.0547 181.794 10.4147 182.204 10.6426C182.473 10.7884 183.082 10.9707 184.03 11.1895L185.438 11.5107C186.117 11.6657 186.641 11.8776 187.01 12.1465C187.648 12.6159 187.967 13.2972 187.967 14.1904C187.967 15.3024 187.562 16.0977 186.75 16.5762C185.944 17.0547 185.005 17.2939 183.934 17.2939C182.685 17.2939 181.708 16.9749 181.001 16.3369C180.295 15.7035 179.949 14.8444 179.962 13.7598H181.241Z" fill="#2E333B"/>
</svg>
