<svg width="128" height="128" viewBox="0 0 128 128" fill="none" xmlns="http://www.w3.org/2000/svg">
<circle cx="64" cy="64.5" r="55" fill="#FEF3D5"/>
<path fill-rule="evenodd" clip-rule="evenodd" d="M62.7997 21.9906C68.72 21.9906 72.9981 26.7026 73.6535 33.6646C72.6542 33.2871 71.6304 32.9603 70.585 32.6871C70.2237 28.394 66.8702 25.0185 62.8038 25.0185C58.7381 25.0185 55.3851 28.3929 55.0229 32.6848C53.9661 32.9607 52.9314 33.2914 51.9218 33.6737C52.4725 26.2208 56.3685 21.9906 62.7997 21.9906ZM62.7997 19.5C53.23 19.5 49.6133 27.2456 49.3762 34.7719C39.0992 39.7683 32 50.315 32 62.4904V99.1418C32 104.856 36.6689 109.5 42.404 109.5H83.1995C88.9346 109.5 93.6035 104.852 93.6035 99.1418V71.4959C93.7235 71.4028 93.839 71.3012 93.9492 71.191C95.3694 69.7707 95.3694 67.4592 93.9492 66.0389L93.5993 65.6894V62.4904C93.5993 50.3132 86.498 39.7652 76.2186 34.7696C75.9193 25.7395 70.4866 19.5 62.7997 19.5ZM91.1087 63.2011V62.4904C91.1087 46.8803 78.4098 34.1814 62.7997 34.1814C47.1895 34.1814 34.4906 46.8803 34.4906 62.4904V99.1418C34.4906 103.478 38.0392 107.009 42.404 107.009H83.1995C87.5644 107.009 91.1129 103.482 91.1129 99.1418V72.2484C90.2663 72.1899 89.4364 71.8385 88.7888 71.191L84.349 66.7512C82.9288 65.3309 82.9288 63.0194 84.349 61.5991C84.3873 61.5609 84.4262 61.5237 84.4657 61.4875C84.4657 61.4872 84.4657 61.487 84.4657 61.4867V59.9207C84.4657 48.5629 74.7447 39.3251 62.7997 39.3251C50.8546 39.3251 41.1337 48.5629 41.1337 59.9207V68.5837C41.1337 69.2709 40.5756 69.829 39.8884 69.829C39.2012 69.829 38.6431 69.2709 38.6431 68.5837V59.9207C38.6431 47.1926 49.4802 36.8344 62.7997 36.8344C76.1191 36.8344 86.9563 47.1926 86.9563 59.9207V60.5341C87.8805 60.5414 88.8025 60.8964 89.5052 61.5991L91.1087 63.2011ZM67.9931 32.1286C67.4521 29.4848 65.3317 27.5092 62.8038 27.5092C60.2768 27.5092 58.157 29.4865 57.6152 32.1271C59.3011 31.8402 61.0332 31.6908 62.7997 31.6908C64.5692 31.6908 66.3044 31.8407 67.9931 32.1286ZM87.0437 97.7674C87.0437 100.912 84.4948 103.473 81.3586 103.473H44.2407C41.1087 103.473 38.5598 100.912 38.5598 97.7674V79.9248C38.5598 76.7803 41.1087 74.2189 44.2407 74.2189H81.3586C84.4906 74.2189 87.0437 76.7803 87.0437 79.9248V97.7674ZM44.2407 76.7095C43.1939 76.7095 42.2648 77.2183 41.683 78.0034C41.994 79.4031 43.3701 83.7607 48.4057 83.7607H77.1937C82.2241 83.7607 83.6025 79.4089 83.9154 78.0037C83.3328 77.2184 82.4031 76.7095 81.3586 76.7095H44.2407ZM48.4057 86.2514C44.8324 86.2514 42.4927 84.5819 41.0504 82.6014V97.7674C41.0504 99.5417 42.4831 100.983 44.2407 100.983H81.3586C83.1204 100.983 84.5489 99.5417 84.5489 97.7674V82.6014C83.1066 84.5819 80.767 86.2514 77.1937 86.2514H48.4057ZM86.1108 63.3567C86.3357 63.1318 86.6314 63.0194 86.9271 63.0194C87.2228 63.0194 87.5185 63.1318 87.7434 63.3567L92.1833 67.7966C92.6331 68.2464 92.6331 68.9794 92.1833 69.4292C91.7335 69.879 91.0004 69.879 90.5506 69.4292L86.1108 64.9894C85.661 64.5396 85.661 63.8065 86.1108 63.3567Z" fill="#FD8467"/>
</svg>
