<svg width="36" height="36" viewBox="0 0 36 36" fill="none" xmlns="http://www.w3.org/2000/svg">
<path d="M23.4945 5.66873C20.8354 4.48388 17.8645 4.19036 15.0249 4.83193C12.1853 5.4735 9.62913 7.01579 7.73768 9.22878C5.84623 11.4418 4.72081 14.2069 4.52926 17.1118C4.33772 20.0166 5.09031 22.9056 6.6748 25.3478C8.25929 27.79 10.5908 29.6545 13.3215 30.6634C16.0523 31.6723 19.036 31.7714 21.8277 30.946C24.6194 30.1206 27.0695 28.4148 28.8126 26.0832C30.5557 23.7515 31.4983 20.9189 31.5 18.0077V16.6286C31.5 15.8002 32.1716 15.1286 33 15.1286C33.8284 15.1286 34.5 15.8002 34.5 16.6286V18.0086C34.498 21.5667 33.3458 25.0297 31.2154 27.8795C29.085 30.7293 26.0904 32.814 22.6783 33.8229C19.2663 34.8317 15.6195 34.7106 12.2819 33.4775C8.94428 32.2444 6.09468 29.9655 4.15808 26.9806C2.22149 23.9957 1.30166 20.4648 1.53577 16.9144C1.76988 13.364 3.14539 9.98439 5.45716 7.27962C7.76893 4.57485 10.8931 2.68982 14.3637 1.90568C17.8343 1.12154 21.4654 1.4803 24.7155 2.92845C25.4722 3.26562 25.8123 4.15238 25.4752 4.90909C25.138 5.6658 24.2512 6.0059 23.4945 5.66873Z" fill="#60CF86"/>
<path d="M34.0601 4.94742C34.6462 5.53291 34.6467 6.48266 34.0612 7.06874L19.0612 22.0837C18.7799 22.3653 18.3983 22.5235 18.0004 22.5236C17.6024 22.5237 17.2207 22.3657 16.9393 22.0843L12.4393 17.5843C11.8536 16.9985 11.8536 16.0487 12.4393 15.463C13.0251 14.8772 13.9749 14.8772 14.5607 15.463L17.9995 18.9018L31.9388 4.94848C32.5243 4.3624 33.474 4.36193 34.0601 4.94742Z" fill="#60CF86"/>
</svg>
