<svg width="128" height="128" viewBox="0 0 128 128" fill="none" xmlns="http://www.w3.org/2000/svg">
<circle cx="64" cy="64.5" r="46" fill="#FEF3D5"/>
<g clip-path="url(#clip0_138_720)">
<path d="M76.3717 77.8336L75.6794 75.1432L117.039 64.4977L75.6515 53.8429L76.3438 51.1525L122.959 63.1501C123.573 63.3081 124 63.8611 124 64.4977C124 65.1343 123.573 65.6872 122.959 65.8452L76.3717 77.8382V77.8336Z" fill="#FD8467"/>
<path d="M51.7212 77.8615L5.04085 65.8406C4.42749 65.6826 4 65.1296 4 64.4931C4 63.8565 4.42749 63.3035 5.04085 63.1455L51.7026 51.1339L52.395 53.8243L10.9653 64.4977L52.4182 75.1664L51.7259 77.8568L51.7212 77.8615Z" fill="#FD8467"/>
<path d="M53.0389 51.5273L51.0741 53.4922L75.0366 77.4547L77.0014 75.4898L53.0389 51.5273Z" fill="#FD8467"/>
<path d="M75.0005 51.5668L51.1135 75.4537L53.0784 77.4186L76.9653 53.5316L75.0005 51.5668Z" fill="#FD8467"/>
<path d="M53.3439 52.8531L50.6534 52.1608L62.6511 5.54085C62.8091 4.92749 63.3621 4.5 63.9986 4.5C64.6352 4.5 65.1882 4.92749 65.3462 5.54085L77.3392 52.1283L74.6488 52.8206L63.9986 11.4653L53.3439 52.8531V52.8531Z" fill="#FD8467"/>
<path d="M63.9977 124.5C63.3657 124.5 62.8082 124.072 62.6502 123.459L50.6385 76.7974L53.329 76.105L63.993 117.539L74.6618 76.0864L77.3522 76.7788L65.3359 123.459C65.1779 124.072 64.625 124.5 63.9884 124.5H63.9977Z" fill="#FD8467"/>
<path d="M63.9976 101.806C63.2309 101.806 62.6083 101.183 62.6083 100.416V26.7853C62.6083 26.0186 63.2309 25.396 63.9976 25.396C64.7643 25.396 65.387 26.0186 65.387 26.7853V100.416C65.387 101.183 64.7643 101.806 63.9976 101.806Z" fill="#FD8467"/>
<path d="M100.818 64.9902H27.1821C26.4154 64.9902 25.7927 64.3676 25.7927 63.6009C25.7927 62.8342 26.4154 62.2115 27.1821 62.2115H100.818C101.584 62.2115 102.207 62.8342 102.207 63.6009C102.207 64.3676 101.584 64.9902 100.818 64.9902Z" fill="#FD8467"/>
<path d="M71.0374 97.1544C70.4008 97.1544 69.8292 96.7176 69.6806 96.067C69.5133 95.3189 69.9826 94.5755 70.7307 94.4082C82.2405 91.8293 91.3526 82.7265 93.9408 71.2214C94.108 70.4732 94.8515 70.0086 95.5996 70.1712C96.3477 70.3385 96.817 71.082 96.6498 71.8301C93.8246 84.3807 83.89 94.306 71.3348 97.1172C71.2325 97.1404 71.1303 97.1497 71.0281 97.1497L71.0374 97.1544Z" fill="#FD8467"/>
<path d="M95.3254 58.8705C94.6888 58.8705 94.1126 58.4291 93.9686 57.7832C91.4083 46.213 82.2776 37.0637 70.7074 34.4849C69.9593 34.3176 69.4853 33.5741 69.6526 32.826C69.8199 32.0779 70.568 31.6086 71.3115 31.7712C83.9272 34.5871 93.8849 44.5588 96.6822 57.1791C96.8495 57.9273 96.3756 58.6707 95.6274 58.838C95.5252 58.8612 95.423 58.8705 95.3254 58.8705V58.8705Z" fill="#FD8467"/>
<path d="M32.6653 58.866C32.5677 58.866 32.4655 58.8567 32.3633 58.8335C31.6152 58.6662 31.1412 57.9274 31.3085 57.1746C34.1058 44.5543 44.0636 34.5825 56.6839 31.7667C57.432 31.604 58.1755 32.0687 58.3428 32.8214C58.51 33.5696 58.0361 34.313 57.288 34.4803C45.7178 37.0592 36.5871 46.2038 34.0221 57.774C33.8781 58.4246 33.3066 58.8613 32.6653 58.8613V58.866Z" fill="#FD8467"/>
<path d="M56.958 97.1591C56.8558 97.1591 56.7536 97.1498 56.6513 97.1266C44.0914 94.3153 34.1522 84.3901 31.327 71.8348C31.1598 71.0867 31.6291 70.3432 32.3772 70.1759C33.1299 70.0086 33.8688 70.478 34.036 71.2261C36.6289 82.7358 45.741 91.8386 57.2554 94.4175C58.0035 94.5848 58.4775 95.3283 58.3102 96.0764C58.1661 96.7223 57.59 97.1637 56.9534 97.1637L56.958 97.1591Z" fill="#FD8467"/>
<path d="M52.0511 53.8754C51.6933 53.8754 51.3402 53.7407 51.0707 53.4665L32.5584 34.9542C32.0147 34.4106 32.0147 33.5323 32.5584 32.9887C33.102 32.445 33.9803 32.445 34.5239 32.9887L53.0362 51.501C53.5799 52.0446 53.5799 52.9228 53.0362 53.4665C52.7667 53.736 52.4089 53.8754 52.0558 53.8754H52.0511Z" fill="#FD8467"/>
<path d="M94.3032 96.1275C93.9454 96.1275 93.5923 95.9927 93.3227 95.7186L74.8105 77.2063C74.2668 76.6626 74.2668 75.7844 74.8105 75.2408C75.3541 74.6971 76.2323 74.6971 76.776 75.2408L95.2883 93.753C95.8319 94.2967 95.8319 95.1749 95.2883 95.7186C95.0188 95.9881 94.661 96.1275 94.3078 96.1275H94.3032Z" fill="#FD8467"/>
<path d="M75.7909 53.8754C75.4331 53.8754 75.08 53.7407 74.8105 53.4665C74.2668 52.9228 74.2668 52.0446 74.8105 51.501L93.3227 32.9887C93.8664 32.445 94.7446 32.445 95.2883 32.9887C95.8319 33.5323 95.8319 34.4106 95.2883 34.9542L76.776 53.4665C76.5065 53.736 76.1487 53.8754 75.7955 53.8754H75.7909Z" fill="#FD8467"/>
<path d="M33.5388 96.1275C33.181 96.1275 32.8279 95.9927 32.5584 95.7186C32.0147 95.1749 32.0147 94.2967 32.5584 93.753L51.0707 75.2408C51.6143 74.6971 52.4926 74.6971 53.0362 75.2408C53.5799 75.7844 53.5799 76.6626 53.0362 77.2063L34.5239 95.7186C34.2544 95.9881 33.8966 96.1275 33.5435 96.1275H33.5388Z" fill="#FD8467"/>
</g>
<defs>
<clipPath id="clip0_138_720">
<rect width="120" height="120" fill="white" transform="translate(4 4.5)"/>
</clipPath>
</defs>
</svg>
