<svg width="128" height="128" viewBox="0 0 128 128" fill="none" xmlns="http://www.w3.org/2000/svg">
<circle cx="64" cy="64.5" r="46" fill="#FEF3D5"/>
<g clip-path="url(#clip0_138_715)">
<path d="M63.9321 78.3586C43.5654 78.3586 27 61.7932 27 41.4321C27 21.071 43.5654 4.5 63.9321 4.5C84.2988 4.5 100.864 21.0654 100.864 41.4321C100.864 61.7988 84.2988 78.3642 63.9321 78.3642V78.3586ZM63.9321 7.8478C45.4129 7.8478 30.3478 22.9129 30.3478 41.4321C30.3478 59.9514 45.4129 75.0164 63.9321 75.0164C82.4514 75.0164 97.5164 59.9514 97.5164 41.4321C97.5164 22.9129 82.4458 7.8478 63.9321 7.8478V7.8478Z" fill="#FD8467"/>
<path d="M78.0566 124.5H49.8075C46.6164 124.5 44.0188 121.891 44.0188 118.689V102.14C44.0188 98.938 46.6164 96.3292 49.8075 96.3292H78.0566C81.2476 96.3292 83.8452 98.938 83.8452 102.14V118.689C83.8452 121.891 81.2476 124.5 78.0566 124.5ZM49.8075 99.677C48.4639 99.677 47.3666 100.78 47.3666 102.14V118.689C47.3666 120.049 48.4639 121.152 49.8075 121.152H78.0566C79.4058 121.152 80.4975 120.049 80.4975 118.689V102.14C80.4975 100.78 79.4002 99.677 78.0566 99.677H49.8075Z" fill="#FD8467"/>
<path d="M35.6536 59.0579L32.6375 60.5107L51.0459 98.7266L54.0621 97.2738L35.6536 59.0579Z" fill="#FD8467"/>
<path d="M55.7315 59.5496L52.4176 60.0248L57.7224 97.0208L61.0363 96.5456L55.7315 59.5496Z" fill="#FD8467"/>
<path d="M91.83 59.0543L73.4282 97.2734L76.4446 98.7258L94.8464 60.5067L91.83 59.0543Z" fill="#FD8467"/>
<path d="M71.7644 59.5441L66.4596 96.54L69.7735 97.0152L75.0783 60.0192L71.7644 59.5441Z" fill="#FD8467"/>
<path d="M93.3458 58.1151H34.1492V61.4629H93.3458V58.1151Z" fill="#FD8467"/>
<path d="M40.9621 114.686C37.8383 114.686 35.2966 112.145 35.2966 109.021C35.2966 105.897 37.8383 103.35 40.9621 103.35C44.086 103.35 46.6332 105.891 46.6332 109.021C46.6332 112.15 44.0916 114.686 40.9621 114.686V114.686ZM40.9621 106.138C39.3778 106.138 38.0846 107.431 38.0846 109.015C38.0846 110.599 39.3778 111.893 40.9621 111.893C42.5465 111.893 43.8397 110.599 43.8397 109.015C43.8397 107.431 42.5465 106.138 40.9621 106.138Z" fill="#FD8467"/>
<path d="M56.2735 114.686C53.1497 114.686 50.6024 112.145 50.6024 109.021C50.6024 105.897 53.1441 103.35 56.2735 103.35C59.403 103.35 61.9446 105.891 61.9446 109.021C61.9446 112.15 59.403 114.686 56.2735 114.686ZM56.2735 106.138C54.6892 106.138 53.396 107.431 53.396 109.015C53.396 110.599 54.6892 111.893 56.2735 111.893C57.8578 111.893 59.1511 110.599 59.1511 109.015C59.1511 107.431 57.8578 106.138 56.2735 106.138Z" fill="#FD8467"/>
<path d="M71.5849 114.686C68.4611 114.686 65.9194 112.145 65.9194 109.021C65.9194 105.897 68.4611 103.35 71.5849 103.35C74.7088 103.35 77.256 105.891 77.256 109.021C77.256 112.15 74.7144 114.686 71.5849 114.686ZM71.5849 106.138C70.0006 106.138 68.7074 107.431 68.7074 109.015C68.7074 110.599 70.0006 111.893 71.5849 111.893C73.1693 111.893 74.4625 110.599 74.4625 109.015C74.4625 107.431 73.1693 106.138 71.5849 106.138Z" fill="#FD8467"/>
<path d="M86.8963 114.686C83.7725 114.686 81.2252 112.145 81.2252 109.021C81.2252 105.897 83.7669 103.35 86.8963 103.35C90.0258 103.35 92.5674 105.891 92.5674 109.021C92.5674 112.15 90.0258 114.686 86.8963 114.686ZM86.8963 106.138C85.312 106.138 84.0188 107.431 84.0188 109.015C84.0188 110.599 85.312 111.893 86.8963 111.893C88.4806 111.893 89.7739 110.599 89.7739 109.015C89.7739 107.431 88.4806 106.138 86.8963 106.138Z" fill="#FD8467"/>
<path d="M82.1715 106.143H41.4157C40.6431 106.143 40.0217 105.516 40.0217 104.749C40.0217 103.982 40.6487 103.355 41.4157 103.355H82.1715C82.9441 103.355 83.5655 103.982 83.5655 104.749C83.5655 105.516 82.9385 106.143 82.1715 106.143Z" fill="#FD8467"/>
</g>
<defs>
<clipPath id="clip0_138_715">
<rect width="73.8586" height="120" fill="white" transform="translate(27 4.5)"/>
</clipPath>
</defs>
</svg>
