<svg width="128" height="128" viewBox="0 0 128 128" fill="none" xmlns="http://www.w3.org/2000/svg">
<g clip-path="url(#clip0_138_704)">
<circle cx="73" cy="55.5" r="55" fill="#FEF3D5"/>
<g clip-path="url(#clip1_138_704)">
<path d="M126.387 128.314H1.61301C0.72289 128.314 0 127.591 0 126.701C0 125.811 0.72289 125.088 1.61301 125.088H126.387C127.277 125.088 128 125.811 128 126.701C128 127.591 127.277 128.314 126.387 128.314Z" fill="#FD8467"/>
<path d="M39.4837 128.099C38.5936 128.099 37.8707 127.376 37.8707 126.486V81.2834C37.8707 80.3933 37.3528 79.7729 36.8888 79.7729H20.3595C19.8955 79.7729 19.3776 80.3933 19.3776 81.2834V126.48C19.3776 127.37 18.6548 128.093 17.7646 128.093C16.8745 128.093 16.1516 127.37 16.1516 126.48V81.2834C16.1516 78.6724 18.0398 76.5469 20.3595 76.5469H36.8888C39.2085 76.5469 41.0967 78.6724 41.0967 81.2834V126.48C41.0967 127.37 40.3738 128.093 39.4837 128.093V128.099Z" fill="#FD8467"/>
<path d="M34.7851 79.1147C33.895 79.1147 33.1721 78.3918 33.1721 77.5017V68.1203H24.0766V77.5017C24.0766 78.3918 23.3537 79.1147 22.4636 79.1147C21.5735 79.1147 20.8506 78.3918 20.8506 77.5017V66.5073C20.8506 65.6172 21.5735 64.8943 22.4636 64.8943H34.7905C35.6806 64.8943 36.4035 65.6172 36.4035 66.5073V77.5017C36.4035 78.3918 35.6806 79.1147 34.7905 79.1147H34.7851Z" fill="#FD8467"/>
<path d="M28.6242 66.928C27.7341 66.928 27.0112 66.2051 27.0112 65.315V46.5199C27.0112 45.6297 27.7341 44.9069 28.6242 44.9069C29.5144 44.9069 30.2373 45.6297 30.2373 46.5199V65.315C30.2373 66.2051 29.5144 66.928 28.6242 66.928V66.928Z" fill="#FD8467"/>
<path d="M47.6999 128.099C46.8098 128.099 46.0869 127.376 46.0869 126.486V43.8118C46.0869 40.3322 48.9191 37.5 52.3933 37.5H82.9111C86.3907 37.5 89.2175 40.3322 89.2175 43.8118V81.0406C89.2175 81.9307 88.4946 82.6536 87.6045 82.6536C86.7144 82.6536 85.9915 81.9307 85.9915 81.0406V43.8118C85.9915 42.1125 84.6105 40.7314 82.9111 40.7314H52.3933C50.694 40.7314 49.3129 42.1125 49.3129 43.8118V126.486C49.3129 127.376 48.5901 128.099 47.6999 128.099V128.099Z" fill="#FD8467"/>
<path d="M104.431 127.931C103.54 127.931 102.818 127.208 102.818 126.318V84.531C102.818 83.6948 102.138 83.0151 101.302 83.0151H78.6116C77.7754 83.0151 77.0957 83.6948 77.0957 84.531V126.318C77.0957 127.208 76.3728 127.931 75.4826 127.931C74.5925 127.931 73.8696 127.208 73.8696 126.318V84.531C73.8696 81.9146 75.9951 79.7891 78.6116 79.7891H101.302C103.918 79.7891 106.044 81.9146 106.044 84.531V126.318C106.044 127.208 105.321 127.931 104.431 127.931V127.931Z" fill="#FD8467"/>
<path d="M97.7789 91.7113H81.7351C80.845 91.7113 80.1221 90.9884 80.1221 90.0982C80.1221 89.2081 80.845 88.4852 81.7351 88.4852H97.7789C98.669 88.4852 99.3919 89.2081 99.3919 90.0982C99.3919 90.9884 98.669 91.7113 97.7789 91.7113Z" fill="#FD8467"/>
<path d="M97.7789 98.0177H81.7351C80.845 98.0177 80.1221 97.2948 80.1221 96.4046C80.1221 95.5145 80.845 94.7916 81.7351 94.7916H97.7789C98.669 94.7916 99.3919 95.5145 99.3919 96.4046C99.3919 97.2948 98.669 98.0177 97.7789 98.0177Z" fill="#FD8467"/>
<path d="M62.5677 65.4014H55.1338C54.2436 65.4014 53.5208 64.6785 53.5208 63.7884V50.129C53.5208 49.2389 54.2436 48.516 55.1338 48.516H62.5677C63.4578 48.516 64.1807 49.2389 64.1807 50.129V63.7884C64.1807 64.6785 63.4578 65.4014 62.5677 65.4014V65.4014ZM56.7468 62.1754H60.9546V51.742H56.7468V62.1754Z" fill="#FD8467"/>
<path d="M62.5677 85.9444H55.1338C54.2436 85.9444 53.5208 85.2215 53.5208 84.3313V70.672C53.5208 69.7819 54.2436 69.059 55.1338 69.059H62.5677C63.4578 69.059 64.1807 69.7819 64.1807 70.672V84.3313C64.1807 85.2215 63.4578 85.9444 62.5677 85.9444ZM56.7468 82.7183H60.9546V72.285H56.7468V82.7183Z" fill="#FD8467"/>
<path d="M77.6136 65.4014H70.1797C69.2895 65.4014 68.5667 64.6785 68.5667 63.7884V50.129C68.5667 49.2389 69.2895 48.516 70.1797 48.516H77.6136C78.5037 48.516 79.2266 49.2389 79.2266 50.129V63.7884C79.2266 64.6785 78.5037 65.4014 77.6136 65.4014V65.4014ZM71.7927 62.1754H76.0005V51.742H71.7927V62.1754Z" fill="#FD8467"/>
<path d="M39.4837 87.9674H17.7646C16.8745 87.9674 16.1516 87.2445 16.1516 86.3543C16.1516 85.4642 16.8745 84.7413 17.7646 84.7413H39.4783C40.3684 84.7413 41.0913 85.4642 41.0913 86.3543C41.0913 87.2445 40.3684 87.9674 39.4783 87.9674H39.4837Z" fill="#FD8467"/>
<path d="M39.4837 94.29H17.7646C16.8745 94.29 16.1516 93.5671 16.1516 92.677C16.1516 91.7869 16.8745 91.064 17.7646 91.064H39.4783C40.3684 91.064 41.0913 91.7869 41.0913 92.677C41.0913 93.5671 40.3684 94.29 39.4783 94.29H39.4837Z" fill="#FD8467"/>
</g>
</g>
<defs>
<clipPath id="clip0_138_704">
<rect width="128" height="128" fill="white"/>
</clipPath>
<clipPath id="clip1_138_704">
<rect width="128" height="90.8143" fill="white" transform="translate(0 37.5)"/>
</clipPath>
</defs>
</svg>
