<svg width="36" height="36" viewBox="0 0 36 36" fill="none" xmlns="http://www.w3.org/2000/svg">
<rect width="36" height="36" rx="4" fill="#0F1114"/>
<path d="M23 8H13C10.2386 8 8 10.2386 8 13V23C8 25.7614 10.2386 28 13 28H23C25.7614 28 28 25.7614 28 23V13C28 10.2386 25.7614 8 23 8Z" stroke="white" stroke-width="2" stroke-linecap="round" stroke-linejoin="round"/>
<path d="M22 17.3701C22.1234 18.2023 21.9812 19.0523 21.5937 19.7991C21.2062 20.5459 20.5931 21.1515 19.8416 21.5297C19.0901 21.908 18.2384 22.0397 17.4077 21.906C16.5771 21.7723 15.8097 21.3801 15.2148 20.7852C14.6199 20.1903 14.2277 19.4229 14.094 18.5923C13.9604 17.7616 14.092 16.91 14.4703 16.1584C14.8485 15.4069 15.4541 14.7938 16.2009 14.4063C16.9477 14.0188 17.7977 13.8766 18.63 14.0001C19.4789 14.1259 20.2648 14.5215 20.8716 15.1284C21.4785 15.7352 21.8741 16.5211 22 17.3701Z" stroke="white" stroke-width="2" stroke-linecap="round" stroke-linejoin="round"/>
<path d="M23.5 12.5H23.51" stroke="white" stroke-width="2" stroke-linecap="round" stroke-linejoin="round"/>
</svg>
