<svg width="36" height="36" viewBox="0 0 36 36" fill="none" xmlns="http://www.w3.org/2000/svg">
<rect width="36" height="36" rx="4" fill="#0F1114"/>
<path d="M21.9756 13.8145C23.5669 13.8145 25.093 14.4466 26.2182 15.5718C27.3434 16.697 27.9756 18.2232 27.9756 19.8145V26.8145H23.9756V19.8145C23.9756 19.284 23.7649 18.7753 23.3898 18.4002C23.0147 18.0252 22.506 17.8145 21.9756 17.8145C21.4452 17.8145 20.9364 18.0252 20.5614 18.4002C20.1863 18.7753 19.9756 19.284 19.9756 19.8145V26.8145H15.9756V19.8145C15.9756 18.2232 16.6077 16.697 17.7329 15.5718C18.8582 14.4466 20.3843 13.8145 21.9756 13.8145V13.8145Z" stroke="white" stroke-width="2" stroke-linecap="round" stroke-linejoin="round"/>
<path d="M11.9756 14.8145H7.97559V26.8145H11.9756V14.8145Z" stroke="white" stroke-width="2" stroke-linecap="round" stroke-linejoin="round"/>
<path d="M9.97559 11.8145C11.0802 11.8145 11.9756 10.919 11.9756 9.81445C11.9756 8.70988 11.0802 7.81445 9.97559 7.81445C8.87102 7.81445 7.97559 8.70988 7.97559 9.81445C7.97559 10.919 8.87102 11.8145 9.97559 11.8145Z" stroke="white" stroke-width="2" stroke-linecap="round" stroke-linejoin="round"/>
</svg>
