<svg width="20" height="20" viewBox="0 0 20 20" fill="none" xmlns="http://www.w3.org/2000/svg">
<path d="M3.33341 4.16675C3.33341 3.70651 3.70651 3.33341 4.16675 3.33341H15.8334C16.2936 3.33341 16.6667 3.70651 16.6667 4.16675V5.83341H11.6667C11.2065 5.83341 10.8334 6.20651 10.8334 6.66675C10.8334 7.12698 11.2065 7.50008 11.6667 7.50008H16.6667V15.8334C16.6667 16.2936 16.2936 16.6667 15.8334 16.6667H2.50008C2.03984 16.6667 1.66675 17.0398 1.66675 17.5001C1.66675 17.9603 2.03984 18.3334 2.50008 18.3334H15.8334C17.2141 18.3334 18.3334 17.2141 18.3334 15.8334V4.16675C18.3334 2.78604 17.2141 1.66675 15.8334 1.66675H4.16675C2.78604 1.66675 1.66675 2.78604 1.66675 4.16675V5.83341C1.66675 6.29365 2.03984 6.66675 2.50008 6.66675C2.96032 6.66675 3.33341 6.29365 3.33341 5.83341V4.16675Z" fill="#2E333B"/>
<path d="M6.42267 5.24416C6.09723 4.91872 5.5696 4.91872 5.24416 5.24416C4.91872 5.5696 4.91872 6.09723 5.24416 6.42267L7.98824 9.16675H2.50008C2.03984 9.16675 1.66675 9.53984 1.66675 10.0001C1.66675 10.4603 2.03984 10.8334 2.50008 10.8334H7.98824L5.24416 13.5775C4.91872 13.9029 4.91872 14.4306 5.24416 14.756C5.5696 15.0814 6.09723 15.0814 6.42267 14.756L10.5887 10.5899L10.5948 10.5839C10.672 10.5053 10.7304 10.4151 10.7702 10.3191C10.8106 10.2215 10.8331 10.1147 10.8334 10.0026L10.8334 10.0001L10.8334 9.99758C10.8327 9.77122 10.7418 9.56609 10.5948 9.41629L10.5887 9.41023L6.42267 5.24416Z" fill="#2E333B"/>
</svg>
