<svg width="36" height="37" viewBox="0 0 36 37" fill="none" xmlns="http://www.w3.org/2000/svg">
<path d="M31.5 15.5C31.5 26 18 35 18 35C18 35 4.5 26 4.5 15.5C4.5 11.9196 5.92232 8.4858 8.45406 5.95406C10.9858 3.42232 14.4196 2 18 2C21.5804 2 25.0142 3.42232 27.5459 5.95406C30.0777 8.4858 31.5 11.9196 31.5 15.5Z" stroke="#FD8467" stroke-width="2" stroke-linecap="round" stroke-linejoin="round"/>
<path d="M18 20C20.4853 20 22.5 17.9853 22.5 15.5C22.5 13.0147 20.4853 11 18 11C15.5147 11 13.5 13.0147 13.5 15.5C13.5 17.9853 15.5147 20 18 20Z" stroke="#FD8467" stroke-width="2" stroke-linecap="round" stroke-linejoin="round"/>
</svg>
