<svg width="96" height="96" viewBox="0 0 96 96" fill="none" xmlns="http://www.w3.org/2000/svg">
<path d="M47.8326 56.6617C35.1034 56.6617 24.75 46.3083 24.75 33.5826C24.75 20.8569 35.1034 10.5 47.8326 10.5C60.5618 10.5 70.9151 20.8534 70.9151 33.5826C70.9151 46.3118 60.5618 56.6652 47.8326 56.6652V56.6617ZM47.8326 12.5924C36.258 12.5924 26.8424 22.008 26.8424 33.5826C26.8424 45.1571 36.258 54.5728 47.8326 54.5728C59.4071 54.5728 68.8228 45.1571 68.8228 33.5826C68.8228 22.008 59.4036 12.5924 47.8326 12.5924V12.5924Z" fill="#FD8467"/>
<path d="M56.6603 85.5H39.0046C37.0102 85.5 35.3867 83.8695 35.3867 81.8681V71.5252C35.3867 69.5238 37.0102 67.8933 39.0046 67.8933H56.6603C58.6547 67.8933 60.2782 69.5238 60.2782 71.5252V81.8681C60.2782 83.8695 58.6547 85.5 56.6603 85.5ZM39.0046 69.9857C38.1649 69.9857 37.4791 70.6749 37.4791 71.5252V81.8681C37.4791 82.7183 38.1649 83.4076 39.0046 83.4076H56.6603C57.5036 83.4076 58.1859 82.7183 58.1859 81.8681V71.5252C58.1859 70.6749 57.5001 69.9857 56.6603 69.9857H39.0046Z" fill="#FD8467"/>
<path d="M30.1585 44.5986L28.2734 45.5067L39.7788 69.3916L41.6638 68.4836L30.1585 44.5986Z" fill="#FD8467"/>
<path d="M42.7072 44.906L40.636 45.2029L43.9515 68.3254L46.0227 68.0284L42.7072 44.906Z" fill="#FD8467"/>
<path d="M65.2687 44.5964L53.7676 68.4834L55.6528 69.3911L67.154 45.5041L65.2687 44.5964Z" fill="#FD8467"/>
<path d="M52.7279 44.9026L49.4124 68.0251L51.4835 68.322L54.7991 45.1995L52.7279 44.9026Z" fill="#FD8467"/>
<path d="M66.2162 44.0095H29.2183V46.1018H66.2162V44.0095Z" fill="#FD8467"/>
<path d="M33.4765 79.3663C31.5241 79.3663 29.9355 77.7778 29.9355 75.8254C29.9355 73.873 31.5241 72.2809 33.4765 72.2809C35.4289 72.2809 37.0209 73.8695 37.0209 75.8254C37.0209 77.7813 35.4324 79.3663 33.4765 79.3663V79.3663ZM33.4765 74.0234C32.4863 74.0234 31.678 74.8317 31.678 75.8219C31.678 76.8121 32.4863 77.6203 33.4765 77.6203C34.4667 77.6203 35.2749 76.8121 35.2749 75.8219C35.2749 74.8317 34.4667 74.0234 33.4765 74.0234Z" fill="#FD8467"/>
<path d="M43.0461 79.3663C41.0937 79.3663 39.5017 77.7778 39.5017 75.8254C39.5017 73.873 41.0902 72.2809 43.0461 72.2809C45.0021 72.2809 46.5906 73.8695 46.5906 75.8254C46.5906 77.7813 45.0021 79.3663 43.0461 79.3663ZM43.0461 74.0234C42.0559 74.0234 41.2477 74.8317 41.2477 75.8219C41.2477 76.8121 42.0559 77.6203 43.0461 77.6203C44.0363 77.6203 44.8446 76.8121 44.8446 75.8219C44.8446 74.8317 44.0363 74.0234 43.0461 74.0234Z" fill="#FD8467"/>
<path d="M52.6156 79.3663C50.6632 79.3663 49.0747 77.7778 49.0747 75.8254C49.0747 73.873 50.6632 72.2809 52.6156 72.2809C54.5681 72.2809 56.1601 73.8695 56.1601 75.8254C56.1601 77.7813 54.5716 79.3663 52.6156 79.3663ZM52.6156 74.0234C51.6254 74.0234 50.8172 74.8317 50.8172 75.8219C50.8172 76.8121 51.6254 77.6203 52.6156 77.6203C53.6059 77.6203 54.4141 76.8121 54.4141 75.8219C54.4141 74.8317 53.6059 74.0234 52.6156 74.0234Z" fill="#FD8467"/>
<path d="M62.1853 79.3663C60.2329 79.3663 58.6409 77.7778 58.6409 75.8254C58.6409 73.873 60.2294 72.2809 62.1853 72.2809C64.1412 72.2809 65.7297 73.8695 65.7297 75.8254C65.7297 77.7813 64.1412 79.3663 62.1853 79.3663ZM62.1853 74.0234C61.1951 74.0234 60.3868 74.8317 60.3868 75.8219C60.3868 76.8121 61.1951 77.6203 62.1853 77.6203C63.1755 77.6203 63.9838 76.8121 63.9838 75.8219C63.9838 74.8317 63.1755 74.0234 62.1853 74.0234Z" fill="#FD8467"/>
<path d="M59.2323 74.0269H33.7599C33.2771 74.0269 32.8887 73.6351 32.8887 73.1557C32.8887 72.6763 33.2806 72.2845 33.7599 72.2845H59.2323C59.7151 72.2845 60.1035 72.6763 60.1035 73.1557C60.1035 73.6351 59.7116 74.0269 59.2323 74.0269Z" fill="#FD8467"/>
</svg>
