<svg width="96" height="96" viewBox="0 0 96 96" fill="none" xmlns="http://www.w3.org/2000/svg">
<path fill-rule="evenodd" clip-rule="evenodd" d="M37.986 23.0949C37.803 22.7061 37.7015 22.2779 37.7015 21.8285V19.7128C37.7015 17.942 39.277 16.5 41.2137 16.5H57.0203C58.9571 16.5 60.5325 17.942 60.5325 19.7128V21.8285C60.5325 22.3938 60.372 22.9255 60.0905 23.3875C61.679 24.0106 62.8078 25.5596 62.8078 27.3654V30.4805C62.8078 31.4723 62.4673 32.3866 61.8972 33.1126C62.0611 33.1507 62.2279 33.1924 62.3976 33.2376C64.5427 33.8105 66.2712 35.7863 67.1728 37.4464C67.9366 38.8471 68.4472 40.3387 68.9413 41.7819L68.9413 41.7819L68.9436 41.7886L68.9736 41.8758L68.9737 41.8761C69.2051 42.5486 69.443 43.2398 69.6988 43.9012C69.8582 44.3079 70.0111 44.7178 70.164 45.1277L70.1642 45.1283L70.1994 45.2227C70.4923 46.0081 70.7699 46.7526 71.1017 47.485C71.7104 48.8326 72.5502 49.744 73.7481 50.3592C74.4609 50.727 75.2649 50.8345 76.1178 50.9451L76.1265 50.9463C77.071 51.0729 78.0477 51.2038 79.018 51.6905C79.7341 52.0519 80.294 52.4067 80.7758 52.8135C82.7614 54.4834 83.6044 57.0516 84.1155 59.1056C84.1865 59.3956 84.2725 59.7129 84.3647 60.0531L84.3647 60.0532L84.4052 60.2025L84.4187 60.253C84.8656 61.9174 85.4183 63.9757 85.4956 65.951C85.5867 68.2849 84.9683 70.0231 83.6565 71.1103C82.068 72.4286 80.2777 72.4286 78.5428 72.4286L78.533 72.4318H75.3363C74.8546 76.3916 71.4721 79.4693 67.3844 79.4693C63.2967 79.4693 59.9142 76.3917 59.4325 72.4318H37.1251C36.6434 76.3917 33.2609 79.4693 29.1732 79.4693C25.0866 79.4693 21.7049 76.3933 21.2217 72.4351H17.4484C15.7167 72.4351 13.9232 72.4351 12.3347 71.1168C9.87111 69.073 10.4466 65.8351 10.9087 63.2345L10.909 63.233L10.9377 63.0706C11.0157 62.6303 11.0912 62.2042 11.1434 61.804C11.5177 58.9526 12.5268 55.0791 15.2155 52.8201C16.6914 51.5776 18.2644 51.3697 19.7861 51.1686L19.8018 51.1665C20.1111 51.1274 20.4236 51.0851 20.7458 51.033C22.3864 50.7726 23.5256 50.0467 24.2287 48.8098C24.8765 47.6673 25.3355 46.4401 25.8205 45.1414C25.9735 44.728 26.1297 44.3113 26.2892 43.9012C26.5293 43.2911 26.7403 42.6681 26.9448 42.0645L26.9448 42.0644L26.9467 42.0588L26.9606 42.0183C27.4315 40.641 27.9185 39.2166 28.7598 37.8305C29.5052 36.6033 30.2734 35.6366 31.1132 34.8814C31.9753 34.1037 33.1856 33.542 34.7308 33.1999C34.1184 32.4605 33.7498 31.5124 33.7498 30.4805V27.3654C33.7498 25.0235 35.6484 23.1135 37.986 23.0949ZM39.648 19.7128C39.648 19.0444 40.2952 18.493 41.1096 18.4493V23.092C40.2952 23.0486 39.648 22.5 39.648 21.8285V19.7128ZM43.0561 23.0948V18.4465H53.8433V23.0948H43.0561ZM53.8433 25.0413H43.0561V32.8014H53.8433V25.0413ZM55.7899 32.8014V25.0413H58.5371C59.8196 25.0413 60.8613 26.0829 60.8613 27.3654V30.4805C60.8613 31.7216 59.8859 32.7371 58.6607 32.8014H55.7899ZM55.7899 23.0948V18.4465H57.0203C57.8829 18.4465 58.586 19.0162 58.586 19.7128V21.8285C58.586 22.5251 57.8829 23.0948 57.0203 23.0948H55.7899ZM38.0205 25.0413H41.1096V32.8014H38.9189C38.7756 32.8014 38.6339 32.8025 38.4938 32.8046H38.0205C36.738 32.8046 35.6963 31.763 35.6963 30.4805V27.3654C35.6963 26.0829 36.738 25.0413 38.0205 25.0413ZM58.7043 34.7479C58.6489 34.7501 58.5931 34.7512 58.5371 34.7512H38.5037C34.8644 34.8091 33.1843 35.6329 32.4152 36.3266C31.7186 36.9549 31.0676 37.7751 30.4231 38.8395C29.6842 40.0569 29.248 41.3362 28.7891 42.687C28.5775 43.312 28.3562 43.9565 28.1023 44.6108C27.946 45.0112 27.793 45.418 27.6433 45.8217C27.155 47.1367 26.6473 48.4941 25.9214 49.7701C24.9221 51.5311 23.2815 52.602 21.0518 52.9535C20.7133 53.0056 20.3812 53.0512 20.0557 53.0935L20.0538 53.0937C18.6355 53.2792 17.5131 53.4259 16.4687 54.3076C14.2585 56.163 13.4024 59.545 13.0736 62.0547C13.0138 62.5177 12.9265 63.0082 12.8354 63.5203L12.8354 63.5203L12.8353 63.5204L12.8353 63.5204L12.8262 63.5715C12.7092 64.2294 12.5912 64.8935 12.5181 65.5376H23.6884V65.6251C25.1227 64.2757 27.0531 63.4478 29.1732 63.4478C31.2471 63.4478 33.1394 64.24 34.5635 65.5376H61.9942C63.4183 64.24 65.3106 63.4478 67.3844 63.4478C69.4582 63.4478 71.3506 64.24 72.7747 65.5376H77.4817V61.2898C77.4817 60.7527 77.9178 60.3165 78.4549 60.3165H82.4072C82.3378 60.0567 82.2733 59.8115 82.2145 59.5808C81.7751 57.8133 81.0687 55.6162 79.5128 54.3076C79.1482 54.0016 78.7088 53.725 78.1326 53.432C77.4641 53.0945 76.6972 52.9919 75.882 52.8828L75.8819 52.8828L75.8508 52.8787L75.8466 52.8781C74.9167 52.7545 73.8605 52.6142 72.8497 52.0942C71.2645 51.2804 70.1122 50.0337 69.3212 48.289C68.9501 47.4655 68.6344 46.6224 68.3316 45.8086C68.298 45.7186 68.2645 45.6286 68.231 45.5386L68.2293 45.5342C68.1145 45.2255 67.9997 44.9172 67.8792 44.6108C67.596 43.8816 67.3388 43.1395 67.0947 42.4201L67.0805 42.3786C66.5942 40.9617 66.1344 39.6216 65.4574 38.3773C64.7804 37.1339 63.4393 35.5324 61.8899 35.119C60.9687 34.8749 60.1354 34.7479 59.4193 34.7479H58.7043ZM17.4484 70.4886H21.2209C21.3521 69.4063 21.7 68.3899 22.2197 67.4841H12.4921C12.601 68.328 12.9138 69.0679 13.5782 69.6195C14.6263 70.4886 15.8697 70.4886 17.4484 70.4886ZM44.7032 28.9246C44.7032 29.4617 45.1393 29.8978 45.6764 29.8978H51.656C52.1931 29.8978 52.6292 29.4617 52.6292 28.9246C52.6292 28.3875 52.1931 27.9513 51.656 27.9513H45.6764C45.1393 27.9513 44.7032 28.3875 44.7032 28.9246ZM82.9199 62.263H79.4282V65.5376H83.5084C83.4179 64.4529 83.1816 63.3203 82.9199 62.263ZM83.4742 67.4841H74.3379C74.8571 68.389 75.2048 69.4043 75.3363 70.4853H78.533C80.1117 70.4853 81.3552 70.4853 82.4033 69.6162C82.9765 69.1393 83.331 68.436 83.4742 67.4841ZM59.4325 70.4853C59.564 69.4043 59.9117 68.389 60.4309 67.4841H36.1267C36.6459 68.389 36.9936 69.4043 37.1251 70.4853H59.4325ZM62.4758 53.5915C61.1543 53.5915 59.8295 53.5752 58.5079 53.5589C57.1929 53.5427 55.8778 53.5264 54.5628 53.5264H41.4351C40.12 53.5264 38.805 53.5427 37.4899 53.5589L36.9411 53.5652C35.673 53.5798 34.4067 53.5943 33.1379 53.5915C31.5852 53.5882 30.446 53.1065 29.8438 52.1983C28.9291 50.8214 29.4597 49.1744 29.8503 47.9733L29.9707 47.5989C30.1101 47.15 30.24 46.6987 30.3705 46.245L30.3707 46.2446L30.3707 46.2444L30.3708 46.2441L30.3709 46.2439L30.3709 46.2437L30.4362 46.017L30.4483 45.9746C30.6951 45.1123 30.949 44.2255 31.2532 43.3576C32.6073 39.4775 34.6678 37.5082 37.3793 37.5082H58.6251C61.3366 37.5082 63.4003 39.4775 64.7544 43.3576C65.0604 44.2397 65.3208 45.1413 65.5714 46.017C65.7211 46.5443 65.8741 47.0749 66.0369 47.5989L66.1573 47.9733L66.1596 47.9803C66.5467 49.1808 67.0767 50.8241 66.1638 52.1983C65.5616 53.1065 64.4224 53.585 62.8697 53.5915H62.4856H62.4758ZM37.3728 39.4547C35.5532 39.4547 34.1502 40.9423 33.0826 43.9988C32.7929 44.8289 32.5422 45.7045 32.3014 46.554C32.2673 46.6717 32.2335 46.7895 32.1996 46.9073L32.1987 46.9105L32.1986 46.9107C32.0772 47.333 31.9556 47.756 31.8261 48.1751L31.6992 48.5754C31.416 49.4445 31.0677 50.5285 31.4616 51.1209C31.6764 51.4464 32.3046 51.6417 33.1379 51.645C34.5766 51.645 36.0186 51.632 37.4606 51.6124L37.4708 51.6123C38.7922 51.5961 40.1104 51.5799 41.4318 51.5799H47.024V39.458H37.3728V39.4547ZM48.9705 39.458H58.6218C60.4414 39.458 61.8443 40.9456 62.912 44.0021C63.2017 44.8289 63.4523 45.7077 63.6932 46.554C63.8462 47.0944 64.0025 47.638 64.1685 48.1751L64.2954 48.5754C64.5786 49.4445 64.9269 50.5252 64.533 51.1209C64.3149 51.4464 63.6867 51.645 62.8534 51.645C61.4179 51.6482 59.9727 51.632 58.5307 51.6124L58.5302 51.6124C57.2056 51.5961 55.8809 51.5799 54.5595 51.5799H48.9705V39.458ZM61.3202 71.4553C61.3202 68.1123 64.0415 65.3911 67.3844 65.3911C70.7274 65.3911 73.4486 68.1123 73.4486 71.4553C73.4486 74.7982 70.7274 77.5195 67.3844 77.5195C64.0415 77.5195 61.3202 74.7982 61.3202 71.4553ZM29.1732 65.3911C25.8303 65.3911 23.109 68.1123 23.109 71.4553C23.109 74.7982 25.8303 77.5195 29.1732 77.5195C32.5162 77.5195 35.2374 74.7982 35.2374 71.4553C35.2374 68.1123 32.5162 65.3911 29.1732 65.3911ZM47.7304 57.9923C47.7304 58.5294 47.2942 58.9656 46.7571 58.9656H42.0861C41.549 58.9656 41.1128 58.5294 41.1128 57.9923C41.1128 57.4552 41.549 57.0191 42.0861 57.0191H46.7571C47.2942 57.0191 47.7304 57.4552 47.7304 57.9923ZM67.3844 75.8952C64.9366 75.8952 62.9445 73.9031 62.9445 71.4553C62.9445 69.0075 64.9366 67.0154 67.3844 67.0154C69.8322 67.0154 71.8243 69.0075 71.8243 71.4553C71.8243 73.9031 69.8322 75.8952 67.3844 75.8952ZM67.3844 68.9619C66.0108 68.9619 64.891 70.0816 64.891 71.4553C64.891 72.8289 66.0108 73.9487 67.3844 73.9487C68.758 73.9487 69.8778 72.8289 69.8778 71.4553C69.8778 70.0816 68.758 68.9619 67.3844 68.9619ZM24.7333 71.4553C24.7333 73.9031 26.7254 75.8952 29.1732 75.8952C31.621 75.8952 33.6131 73.9031 33.6131 71.4553C33.6131 69.0075 31.621 67.0154 29.1732 67.0154C26.7254 67.0154 24.7333 69.0075 24.7333 71.4553ZM26.6798 71.4553C26.6798 70.0816 27.7996 68.9619 29.1732 68.9619C30.5468 68.9619 31.6666 70.0816 31.6666 71.4553C31.6666 72.8289 30.5468 73.9487 29.1732 73.9487C27.7996 73.9487 26.6798 72.8289 26.6798 71.4553Z" fill="#FD8467"/>
</svg>
