<svg width="96" height="96" viewBox="0 0 96 96" fill="none" xmlns="http://www.w3.org/2000/svg">
<g clip-path="url(#clip0_138_1178)">
<path d="M94.7902 96.2357H1.20976C0.542167 96.2357 0 95.6936 0 95.026C0 94.3584 0.542167 93.8162 1.20976 93.8162H94.7902C95.4578 93.8162 96 94.3584 96 95.026C96 95.6936 95.4578 96.2357 94.7902 96.2357Z" fill="#FD8467"/>
<path d="M29.6128 96.0739C28.9452 96.0739 28.4031 95.5317 28.4031 94.8641V60.9625C28.4031 60.2949 28.0146 59.8296 27.6667 59.8296H15.2697C14.9217 59.8296 14.5333 60.2949 14.5333 60.9625V94.8601C14.5333 95.5277 13.9911 96.0698 13.3235 96.0698C12.6559 96.0698 12.1138 95.5277 12.1138 94.8601V60.9625C12.1138 59.0042 13.5299 57.4101 15.2697 57.4101H27.6667C29.4065 57.4101 30.8226 59.0042 30.8226 60.9625V94.8601C30.8226 95.5277 30.2804 96.0698 29.6128 96.0698V96.0739Z" fill="#FD8467"/>
<path d="M26.0888 59.336C25.4212 59.336 24.8791 58.7939 24.8791 58.1263V51.0902H18.0575V58.1263C18.0575 58.7939 17.5153 59.336 16.8477 59.336C16.1801 59.336 15.6379 58.7939 15.6379 58.1263V49.8805C15.6379 49.2129 16.1801 48.6707 16.8477 48.6707H26.0929C26.7605 48.6707 27.3026 49.2129 27.3026 49.8805V58.1263C27.3026 58.7939 26.7605 59.336 26.0929 59.336H26.0888Z" fill="#FD8467"/>
<path d="M21.4683 50.196C20.8007 50.196 20.2585 49.6539 20.2585 48.9863V34.8899C20.2585 34.2223 20.8007 33.6802 21.4683 33.6802C22.1359 33.6802 22.6781 34.2223 22.6781 34.8899V48.9863C22.6781 49.6539 22.1359 50.196 21.4683 50.196V50.196Z" fill="#FD8467"/>
<path d="M35.7749 96.0739C35.1074 96.0739 34.5652 95.5317 34.5652 94.8641V32.8588C34.5652 30.2492 36.6893 28.125 39.295 28.125H62.1833C64.793 28.125 66.9131 30.2492 66.9131 32.8588V60.7804C66.9131 61.448 66.371 61.9902 65.7034 61.9902C65.0358 61.9902 64.4936 61.448 64.4936 60.7804V32.8588C64.4936 31.5843 63.4578 30.5486 62.1833 30.5486H39.295C38.0205 30.5486 36.9847 31.5843 36.9847 32.8588V94.8641C36.9847 95.5317 36.4425 96.0739 35.7749 96.0739V96.0739Z" fill="#FD8467"/>
<path d="M78.3228 95.9485C77.6552 95.9485 77.1131 95.4063 77.1131 94.7387V63.3982C77.1131 62.7711 76.6033 62.2613 75.9761 62.2613H58.9586C58.3314 62.2613 57.8216 62.7711 57.8216 63.3982V94.7387C57.8216 95.4063 57.2795 95.9485 56.6119 95.9485C55.9443 95.9485 55.4021 95.4063 55.4021 94.7387V63.3982C55.4021 61.4359 56.9962 59.8418 58.9586 59.8418H75.9761C77.9385 59.8418 79.5326 61.4359 79.5326 63.3982V94.7387C79.5326 95.4063 78.9904 95.9485 78.3228 95.9485V95.9485Z" fill="#FD8467"/>
<path d="M73.3342 68.7835H61.3013C60.6337 68.7835 60.0916 68.2413 60.0916 67.5737C60.0916 66.9061 60.6337 66.364 61.3013 66.364H73.3342C74.0018 66.364 74.5439 66.9061 74.5439 67.5737C74.5439 68.2413 74.0018 68.7835 73.3342 68.7835Z" fill="#FD8467"/>
<path d="M73.3342 73.5133H61.3013C60.6337 73.5133 60.0916 72.9711 60.0916 72.3035C60.0916 71.6359 60.6337 71.0938 61.3013 71.0938H73.3342C74.0018 71.0938 74.5439 71.6359 74.5439 72.3035C74.5439 72.9711 74.0018 73.5133 73.3342 73.5133Z" fill="#FD8467"/>
<path d="M46.9258 49.051H41.3504C40.6828 49.051 40.1406 48.5088 40.1406 47.8413V37.5967C40.1406 36.9291 40.6828 36.387 41.3504 36.387H46.9258C47.5934 36.387 48.1356 36.9291 48.1356 37.5967V47.8413C48.1356 48.5088 47.5934 49.051 46.9258 49.051V49.051ZM42.5601 46.6315H45.716V38.8065H42.5601V46.6315Z" fill="#FD8467"/>
<path d="M46.9258 64.4583H41.3504C40.6828 64.4583 40.1406 63.9161 40.1406 63.2485V53.004C40.1406 52.3364 40.6828 51.7942 41.3504 51.7942H46.9258C47.5934 51.7942 48.1356 52.3364 48.1356 53.004V63.2485C48.1356 63.9161 47.5934 64.4583 46.9258 64.4583ZM42.5601 62.0387H45.716V54.2137H42.5601V62.0387Z" fill="#FD8467"/>
<path d="M58.2102 49.051H52.6348C51.9672 49.051 51.425 48.5088 51.425 47.8413V37.5967C51.425 36.9291 51.9672 36.387 52.6348 36.387H58.2102C58.8778 36.387 59.42 36.9291 59.42 37.5967V47.8413C59.42 48.5088 58.8778 49.051 58.2102 49.051V49.051ZM53.8446 46.6315H57.0005V38.8065H53.8446V46.6315Z" fill="#FD8467"/>
<path d="M29.6128 65.9756H13.3235C12.6559 65.9756 12.1138 65.4334 12.1138 64.7658C12.1138 64.0982 12.6559 63.556 13.3235 63.556H29.6088C30.2764 63.556 30.8185 64.0982 30.8185 64.7658C30.8185 65.4334 30.2764 65.9756 29.6088 65.9756H29.6128Z" fill="#FD8467"/>
<path d="M29.6128 70.7175H13.3235C12.6559 70.7175 12.1138 70.1753 12.1138 69.5077C12.1138 68.8401 12.6559 68.298 13.3235 68.298H29.6088C30.2764 68.298 30.8185 68.8401 30.8185 69.5077C30.8185 70.1753 30.2764 70.7175 29.6088 70.7175H29.6128Z" fill="#FD8467"/>
</g>
<defs>
<clipPath id="clip0_138_1178">
<rect width="96" height="96" fill="white"/>
</clipPath>
</defs>
</svg>
