<svg width="96" height="96" viewBox="0 0 96 96" fill="none" xmlns="http://www.w3.org/2000/svg">
<path fill-rule="evenodd" clip-rule="evenodd" d="M53.9172 17.4105H54.8815V34.2331H53.9172V17.4105ZM44.5238 17.4105H52.0137V34.2331H44.5238V17.4105ZM41.659 17.4105H42.6204V34.2331H41.659V17.4105ZM38.1383 15.0614C38.1383 16.1014 38.8174 16.9856 39.7555 17.2938V34.2331H35.7256C31.7404 34.2331 28.5 37.4608 28.5 41.4269V72.8568C28.5 76.1438 30.7315 78.925 33.765 79.7781V81.3492C33.765 83.6379 35.6271 85.5 37.9158 85.5C40.2044 85.5 42.0665 83.6379 42.0665 81.3492V80.0474H54.4709V81.3492C54.4709 83.6379 56.3331 85.5 58.6217 85.5C60.9103 85.5 62.7724 83.6379 62.7724 81.3492V79.7762C65.8091 78.9252 68.0404 76.1447 68.0404 72.8536V41.4269C68.0404 37.4608 64.7968 34.2331 60.8147 34.2331H56.785V17.2937C57.7229 16.9854 58.4019 16.1013 58.4019 15.0614V12.8491C58.4019 11.5536 57.3483 10.5 56.0527 10.5H40.4874C39.1919 10.5 38.1383 11.5536 38.1383 12.8491V15.0614ZM40.4874 12.4035C40.2423 12.4035 40.0418 12.604 40.0418 12.8491V15.0614C40.0418 15.3065 40.2423 15.507 40.4874 15.507H56.0527C56.2978 15.507 56.4984 15.3065 56.4984 15.0614V12.8491C56.4984 12.604 56.2978 12.4035 56.0527 12.4035H40.4874ZM56.3744 80.0474V81.3492C56.3744 82.5875 57.3835 83.5965 58.6217 83.5965C59.8599 83.5965 60.869 82.5875 60.869 81.3492V80.044L60.8147 80.0442V80.0474H56.3744ZM35.7256 80.0474H40.163V81.3492C40.163 82.5875 39.154 83.5965 37.9158 83.5965C36.6775 83.5965 35.6685 82.5875 35.6685 81.3492V80.0471L35.7256 80.0474ZM35.7256 36.1398C32.7908 36.1398 30.4035 38.5112 30.4035 41.4269V72.8536C30.4035 75.7693 32.7908 78.1407 35.7256 78.1407H60.8147C63.7496 78.1407 66.1369 75.7693 66.1369 72.8536V41.4269C66.1369 38.5112 63.7496 36.1398 60.8147 36.1398H35.7256ZM36.2252 70.6286C36.2252 71.1538 36.6518 71.5804 37.177 71.5804C37.7022 71.5804 38.1287 71.1538 38.1287 70.6286V43.6551C38.1287 43.1299 37.7022 42.7034 37.177 42.7034C36.6518 42.7034 36.2252 43.1299 36.2252 43.6551V70.6286ZM48.2702 71.5804C47.745 71.5804 47.3185 71.1538 47.3185 70.6286V43.6551C47.3185 43.1299 47.745 42.7034 48.2702 42.7034C48.7954 42.7034 49.222 43.1299 49.222 43.6551V70.6286C49.222 71.1538 48.7954 71.5804 48.2702 71.5804ZM58.4084 70.6286C58.4084 71.1538 58.835 71.5804 59.3602 71.5804C59.8854 71.5804 60.3119 71.1538 60.3119 70.6286V43.6551C60.3119 43.1299 59.8854 42.7034 59.3602 42.7034C58.835 42.7034 58.4084 43.1299 58.4084 43.6551V70.6286Z" fill="#FD8467"/>
</svg>
