<svg width="36" height="37" viewBox="0 0 36 37" fill="none" xmlns="http://www.w3.org/2000/svg">
<path d="M18 33.5C26.2843 33.5 33 26.7843 33 18.5C33 10.2157 26.2843 3.5 18 3.5C9.71573 3.5 3 10.2157 3 18.5C3 26.7843 9.71573 33.5 18 33.5Z" stroke="#FD8467" stroke-width="2" stroke-linecap="round" stroke-linejoin="round"/>
<path d="M18 24.5C21.3137 24.5 24 21.8137 24 18.5C24 15.1863 21.3137 12.5 18 12.5C14.6863 12.5 12 15.1863 12 18.5C12 21.8137 14.6863 24.5 18 24.5Z" stroke="#FD8467" stroke-width="2" stroke-linecap="round" stroke-linejoin="round"/>
<path d="M7.39502 7.89502L13.755 14.255" stroke="#FD8467" stroke-width="2" stroke-linecap="round" stroke-linejoin="round"/>
<path d="M22.2451 22.745L28.6051 29.105" stroke="#FD8467" stroke-width="2" stroke-linecap="round" stroke-linejoin="round"/>
<path d="M22.2451 14.255L28.6051 7.89502" stroke="#FD8467" stroke-width="2" stroke-linecap="round" stroke-linejoin="round"/>
<path d="M22.2451 14.255L27.5401 8.95996" stroke="#FD8467" stroke-width="2" stroke-linecap="round" stroke-linejoin="round"/>
<path d="M7.39502 29.105L13.755 22.745" stroke="#FD8467" stroke-width="2" stroke-linecap="round" stroke-linejoin="round"/>
</svg>
