<svg width="36" height="37" viewBox="0 0 36 37" fill="none" xmlns="http://www.w3.org/2000/svg">
<path d="M18 21.5C19.6569 21.5 21 20.1569 21 18.5C21 16.8431 19.6569 15.5 18 15.5C16.3431 15.5 15 16.8431 15 18.5C15 20.1569 16.3431 21.5 18 21.5Z" stroke="#FD8467" stroke-width="2" stroke-linecap="round" stroke-linejoin="round"/>
<path d="M24.36 12.14C25.1968 12.9759 25.8606 13.9685 26.3135 15.0611C26.7664 16.1536 26.9995 17.3248 26.9995 18.5075C26.9995 19.6903 26.7664 20.8614 26.3135 21.954C25.8606 23.0466 25.1968 24.0392 24.36 24.875M11.64 24.86C10.8032 24.0242 10.1394 23.0316 9.68643 21.939C9.23351 20.8464 9.00039 19.6753 9.00039 18.4925C9.00039 17.3098 9.23351 16.1386 9.68643 15.0461C10.1394 13.9535 10.8032 12.9609 11.64 12.125M28.605 7.89502C31.417 10.7079 32.9968 14.5226 32.9968 18.5C32.9968 22.4775 31.417 26.2921 28.605 29.105M7.39497 29.105C4.5829 26.2921 3.00317 22.4775 3.00317 18.5C3.00317 14.5226 4.5829 10.7079 7.39497 7.89502" stroke="#FD8467" stroke-width="2" stroke-linecap="round" stroke-linejoin="round"/>
</svg>
