<svg width="36" height="36" viewBox="0 0 36 36" fill="none" xmlns="http://www.w3.org/2000/svg">
<rect width="36" height="36" rx="4" fill="#0F1114"/>
<path d="M24.1755 12.2773C24.0406 12.2075 23.9091 12.131 23.7818 12.0481C23.4115 11.8033 23.072 11.5149 22.7706 11.189C22.0165 10.3261 21.7348 9.45076 21.6311 8.83787H21.6352C21.5486 8.32915 21.5844 8 21.5898 8H18.155V21.2818C18.155 21.4602 18.155 21.6364 18.1475 21.8106C18.1475 21.8322 18.1454 21.8522 18.1442 21.8756C18.1442 21.8851 18.1442 21.8951 18.1421 21.9051C18.1421 21.9076 18.1421 21.9101 18.1421 21.9126C18.1059 22.3892 17.9531 22.8495 17.6972 23.2532C17.4414 23.6568 17.0902 23.9914 16.6747 24.2275C16.2416 24.4739 15.7517 24.6032 15.2535 24.6025C13.6531 24.6025 12.3561 23.2976 12.3561 21.686C12.3561 20.0744 13.6531 18.7695 15.2535 18.7695C15.5564 18.7692 15.8575 18.8169 16.1455 18.9107L16.1497 15.4134C15.2753 15.3004 14.387 15.3699 13.5408 15.6175C12.6946 15.865 11.9089 16.2852 11.2333 16.8516C10.6412 17.366 10.1435 17.9798 9.76251 18.6653C9.61752 18.9153 9.07046 19.9198 9.00421 21.5502C8.96255 22.4755 9.24045 23.4342 9.37294 23.8305V23.8388C9.45627 24.0721 9.77917 24.8683 10.3054 25.5395C10.7297 26.078 11.2311 26.5509 11.7932 26.9432V26.9349L11.8016 26.9432C13.4644 28.0732 15.3081 27.999 15.3081 27.999C15.6272 27.9861 16.6963 27.999 17.9104 27.4236C19.257 26.7857 20.0237 25.8354 20.0237 25.8354C20.5134 25.2675 20.9029 24.6204 21.1753 23.9217C21.4861 23.1047 21.5898 22.1247 21.5898 21.7331V14.6867C21.6315 14.7117 22.1865 15.0788 22.1865 15.0788C22.1865 15.0788 22.986 15.5913 24.2334 15.925C25.1284 16.1625 26.3342 16.2125 26.3342 16.2125V12.8027C25.9117 12.8485 25.0538 12.7152 24.1755 12.2773Z" fill="white"/>
</svg>
