<svg width="16" height="17" viewBox="0 0 16 17" fill="none" xmlns="http://www.w3.org/2000/svg">
<g clip-path="url(#clip0_898_10759)">
<path fill-rule="evenodd" clip-rule="evenodd" d="M6 1.83325C4.15905 1.83325 2.66667 3.32564 2.66667 5.16659C2.66667 7.00753 4.15905 8.49992 6 8.49992C7.84095 8.49992 9.33333 7.00753 9.33333 5.16659C9.33333 3.32564 7.84095 1.83325 6 1.83325ZM4 5.16659C4 4.06202 4.89543 3.16659 6 3.16659C7.10457 3.16659 8 4.06202 8 5.16659C8 6.27115 7.10457 7.16659 6 7.16659C4.89543 7.16659 4 6.27115 4 5.16659Z" fill="#4D5562"/>
<path d="M3.33333 9.83325C2.44928 9.83325 1.60143 10.1844 0.976311 10.8096C0.35119 11.4347 0 12.2825 0 13.1666V14.4999C0 14.8681 0.298477 15.1666 0.666667 15.1666C1.03486 15.1666 1.33333 14.8681 1.33333 14.4999V13.1666C1.33333 12.6362 1.54405 12.1274 1.91912 11.7524C2.29419 11.3773 2.8029 11.1666 3.33333 11.1666H8.66667C9.1971 11.1666 9.70581 11.3773 10.0809 11.7524C10.456 12.1274 10.6667 12.6362 10.6667 13.1666V14.4999C10.6667 14.8681 10.9651 15.1666 11.3333 15.1666C11.7015 15.1666 12 14.8681 12 14.4999V13.1666C12 12.2825 11.6488 11.4347 11.0237 10.8096C10.3986 10.1844 9.55072 9.83325 8.66667 9.83325H3.33333Z" fill="#4D5562"/>
<path d="M12.688 10.4199C12.78 10.0634 13.1437 9.84904 13.5002 9.94109C14.2153 10.1257 14.8488 10.5426 15.3013 11.1264C15.7538 11.7101 15.9996 12.4275 16.0002 13.1661V14.4999C16.0002 14.8681 15.7017 15.1666 15.3335 15.1666C14.9653 15.1666 14.6668 14.8681 14.6668 14.4999V13.1671C14.6665 12.724 14.519 12.2934 14.2475 11.9432C13.976 11.593 13.5959 11.3429 13.1668 11.2321C12.8103 11.14 12.596 10.7764 12.688 10.4199Z" fill="#4D5562"/>
<path d="M10.8322 1.94075C10.4755 1.84943 10.1123 2.06454 10.021 2.42123C9.92967 2.77791 10.1448 3.14109 10.5015 3.23242C10.9317 3.34257 11.313 3.59277 11.5853 3.94358C11.8576 4.29438 12.0054 4.72583 12.0054 5.16992C12.0054 5.614 11.8576 6.04546 11.5853 6.39626C11.313 6.74707 10.9317 6.99727 10.5015 7.10742C10.1448 7.19874 9.92967 7.56193 10.021 7.91861C10.1123 8.2753 10.4755 8.49041 10.8322 8.39909C11.5492 8.2155 12.1847 7.7985 12.6386 7.21383C13.0924 6.62915 13.3387 5.91006 13.3387 5.16992C13.3387 4.42978 13.0924 3.71069 12.6386 3.12601C12.1847 2.54134 11.5492 2.12434 10.8322 1.94075Z" fill="#4D5562"/>
</g>
<defs>
<clipPath id="clip0_898_10759">
<rect width="16" height="16" fill="white" transform="translate(0 0.5)"/>
</clipPath>
</defs>
</svg>
