<svg width="16" height="16" viewBox="0 0 16 16" fill="none" xmlns="http://www.w3.org/2000/svg">
<path d="M9.66016 1.72373C9.66016 1.35554 9.95863 1.05707 10.3268 1.05707H12.9935C13.5239 1.05707 14.0326 1.26778 14.4077 1.64285C14.7828 2.01793 14.9935 2.52663 14.9935 3.05707V12.3904C14.9935 12.9208 14.7828 13.4295 14.4077 13.8046C14.0326 14.1797 13.5239 14.3904 12.9935 14.3904H10.3268C9.95863 14.3904 9.66016 14.0919 9.66016 13.7237C9.66016 13.3555 9.95863 13.0571 10.3268 13.0571H12.9935C13.1703 13.0571 13.3399 12.9868 13.4649 12.8618C13.5899 12.7368 13.6602 12.5672 13.6602 12.3904V3.05707C13.6602 2.88026 13.5899 2.71069 13.4649 2.58566C13.3399 2.46064 13.1703 2.3904 12.9935 2.3904H10.3268C9.95863 2.3904 9.66016 2.09192 9.66016 1.72373Z" fill="#3E444E"/>
<path d="M6.52209 3.919C6.78243 3.65865 7.20454 3.65865 7.46489 3.919L10.7978 7.25185C10.7994 7.25346 10.801 7.25508 10.8026 7.2567C10.9202 7.37654 10.993 7.54064 10.9935 7.72173L10.9935 7.72373L10.9935 7.72573C10.9932 7.8154 10.9753 7.9009 10.9429 7.97892C10.9111 8.05577 10.8643 8.12787 10.8026 8.19077C10.801 8.19239 10.7994 8.19401 10.7978 8.19561L7.46489 11.5285C7.20454 11.7888 6.78243 11.7888 6.52209 11.5285C6.26174 11.2681 6.26174 10.846 6.52209 10.5857L8.71735 8.3904H2.32682C1.95863 8.3904 1.66016 8.09192 1.66016 7.72373C1.66016 7.35554 1.95863 7.05707 2.32682 7.05707H8.71735L6.52209 4.86181C6.26174 4.60146 6.26174 4.17935 6.52209 3.919Z" fill="#3E444E"/>
</svg>
