<svg width="140" height="24" viewBox="0 0 140 24" fill="none" xmlns="http://www.w3.org/2000/svg">
<path d="M0 1.98076C0.220083 1.91473 0.572215 1.84871 1.0564 1.78268C1.54058 1.69465 2.03576 1.65063 2.54195 1.65063C3.02614 1.65063 3.4553 1.68365 3.82944 1.74967C4.22559 1.8157 4.55571 1.94775 4.81981 2.14582C5.08391 2.34389 5.28198 2.619 5.41403 2.97113C5.54608 3.30125 5.61211 3.74142 5.61211 4.29162V7.52684C6.16231 7.30676 6.67951 7.1527 7.16369 7.06467C7.66988 6.97663 8.22008 6.93261 8.81431 6.93261C9.8707 6.93261 10.8721 7.11968 11.8184 7.49383C12.7648 7.86797 13.6011 8.41817 14.3274 9.14444C15.0536 9.84871 15.6259 10.729 16.044 11.7854C16.4622 12.8418 16.6713 14.0633 16.6713 15.4498C16.6713 16.8803 16.4512 18.1348 16.011 19.2132C15.5928 20.2696 14.9986 21.1499 14.2283 21.8542C13.458 22.5585 12.5117 23.0977 11.3893 23.4718C10.2889 23.8239 9.0674 24 7.7249 24C6.27235 24 5.03989 23.8239 4.02751 23.4718C3.01513 23.1417 2.15681 22.7235 1.45254 22.2174C0.484182 21.5351 0 20.6548 0 19.5764V1.98076ZM7.7249 19.5764C8.73728 19.5764 9.51857 19.2352 10.0688 18.553C10.641 17.8487 10.9271 16.8143 10.9271 15.4498C10.9271 14.0633 10.641 13.0289 10.0688 12.3466C9.49656 11.6644 8.72627 11.3233 7.75791 11.3233C7.31775 11.3233 6.9326 11.3673 6.60248 11.4553C6.29436 11.5433 5.95323 11.6754 5.57909 11.8515V19.0482C5.82118 19.2022 6.10729 19.3343 6.43742 19.4443C6.78955 19.5323 7.21871 19.5764 7.7249 19.5764Z" fill="#FD8467"/>
<path d="M25.7793 2.90511C27.0338 2.90511 28.1452 3.07017 29.1136 3.40029C30.0819 3.70841 30.9072 4.13757 31.5895 4.68777C32.2717 5.23798 32.7889 5.88722 33.1411 6.6355C33.4932 7.38378 33.6693 8.18709 33.6693 9.04541C33.6693 11.3563 32.3598 13.5571 29.7408 15.6479L25.4162 19.1142H33.3391C33.4712 19.3563 33.5922 19.6644 33.7023 20.0385C33.8343 20.4127 33.9003 20.8198 33.9003 21.26C33.9003 22.0523 33.7243 22.6245 33.3721 22.9766C33.02 23.3068 32.5578 23.4718 31.9856 23.4718H20.5303C20.0461 23.1417 19.661 22.7235 19.3749 22.2174C19.1108 21.6892 18.9787 21.0729 18.9787 20.3687C18.9787 19.6204 19.1328 18.9931 19.4409 18.4869C19.749 17.9587 20.0902 17.5406 20.4643 17.2325L25.02 13.337C25.5922 12.8528 26.0654 12.4237 26.4395 12.0495C26.8137 11.6534 27.1108 11.3013 27.3309 10.9931C27.573 10.685 27.738 10.3989 27.8261 10.1348C27.9361 9.87072 27.9911 9.61762 27.9911 9.37553C27.9911 8.7593 27.716 8.27512 27.1658 7.92299C26.6376 7.57086 25.9774 7.39479 25.1851 7.39479C24.3047 7.39479 23.5124 7.53784 22.8082 7.82395C22.1259 8.08805 21.5537 8.37416 21.0915 8.68227C20.7174 8.41817 20.4093 8.08805 20.1672 7.6919C19.9251 7.29575 19.8041 6.83358 19.8041 6.30538C19.8041 5.16095 20.3433 4.31363 21.4217 3.76343C22.5001 3.19121 23.9526 2.90511 25.7793 2.90511Z" fill="#FD8467"/>
<path d="M37.3887 1.98074C37.6088 1.91472 37.9609 1.84869 38.4451 1.78267C38.9292 1.69464 39.4244 1.65062 39.9306 1.65062C40.4148 1.65062 40.844 1.68363 41.2181 1.74966C41.6143 1.81568 41.9444 1.94773 42.2085 2.1458C42.4726 2.34388 42.6707 2.61898 42.8027 2.97111C42.9348 3.30124 43.0008 3.7414 43.0008 4.29161V7.52682C43.551 7.30674 44.0682 7.15268 44.5524 7.06465C45.0585 6.97662 45.6088 6.9326 46.203 6.9326C47.2594 6.9326 48.2608 7.11967 49.2071 7.49381C50.1535 7.86795 50.9898 8.41816 51.716 9.14443C52.4423 9.84869 53.0145 10.729 53.4327 11.7854C53.8508 12.8418 54.0599 14.0633 54.0599 15.4498C54.0599 16.8803 53.8398 18.1348 53.3997 19.2132C52.9815 20.2696 52.3873 21.1499 51.617 21.8542C50.8467 22.5585 49.9004 23.0977 48.7779 23.4718C47.6775 23.8239 46.4561 24 45.1136 24C43.661 24 42.4286 23.8239 41.4162 23.4718C40.4038 23.1417 39.5455 22.7235 38.8412 22.2173C37.8729 21.5351 37.3887 20.6547 37.3887 19.5763V1.98074ZM45.1136 19.5763C46.126 19.5763 46.9072 19.2352 47.4574 18.553C48.0297 17.8487 48.3158 16.8143 48.3158 15.4498C48.3158 14.0633 48.0297 13.0289 47.4574 12.3466C46.8852 11.6644 46.1149 11.3232 45.1466 11.3232C44.7064 11.3232 44.3213 11.3673 43.9911 11.4553C43.683 11.5433 43.3419 11.6754 42.9678 11.8514V19.0481C43.2099 19.2022 43.496 19.3342 43.8261 19.4443C44.1782 19.5323 44.6074 19.5763 45.1136 19.5763Z" fill="white"/>
<path d="M73.5339 15.4498C73.5339 16.8143 73.3248 18.0358 72.9066 19.1142C72.4885 20.1706 71.8942 21.0619 71.124 21.7882C70.3757 22.5144 69.4733 23.0647 68.4169 23.4388C67.3605 23.8129 66.1831 24 64.8846 24C63.5861 24 62.4087 23.8019 61.3523 23.4058C60.2959 23.0096 59.3826 22.4484 58.6123 21.7221C57.864 20.9739 57.2808 20.0715 56.8626 19.0151C56.4444 17.9587 56.2354 16.7703 56.2354 15.4498C56.2354 14.1513 56.4444 12.9739 56.8626 11.9175C57.2808 10.8611 57.864 9.96974 58.6123 9.24347C59.3826 8.49519 60.2959 7.92297 61.3523 7.52682C62.4087 7.13067 63.5861 6.9326 64.8846 6.9326C66.1831 6.9326 67.3605 7.14168 68.4169 7.55983C69.4733 7.95598 70.3757 8.5282 71.124 9.27648C71.8942 10.0028 72.4885 10.8941 72.9066 11.9505C73.3248 13.0069 73.5339 14.1733 73.5339 15.4498ZM61.9795 15.4498C61.9795 16.7923 62.2326 17.8267 62.7388 18.553C63.267 19.2572 63.9933 19.6094 64.9176 19.6094C65.842 19.6094 66.5462 19.2462 67.0304 18.5199C67.5366 17.7937 67.7897 16.7703 67.7897 15.4498C67.7897 14.1293 67.5366 13.1169 67.0304 12.4127C66.5242 11.6864 65.809 11.3232 64.8846 11.3232C63.9603 11.3232 63.245 11.6864 62.7388 12.4127C62.2326 13.1169 61.9795 14.1293 61.9795 15.4498Z" fill="white"/>
<path d="M86.5735 13.304C86.5735 12.6217 86.3754 12.1265 85.9792 11.8184C85.6051 11.4883 85.0879 11.3232 84.4277 11.3232C83.9875 11.3232 83.5473 11.3783 83.1072 11.4883C82.689 11.5984 82.3259 11.7634 82.0178 11.9835V23.4388C81.7977 23.5048 81.4455 23.5708 80.9614 23.6369C80.4992 23.7029 80.015 23.7359 79.5088 23.7359C79.0246 23.7359 78.5845 23.7029 78.1883 23.6369C77.8142 23.5708 77.4951 23.4388 77.231 23.2407C76.9669 23.0426 76.7578 22.7785 76.6037 22.4484C76.4717 22.0963 76.4057 21.6451 76.4057 21.0949V11.1912C76.4057 10.597 76.5267 10.1128 76.7688 9.73865C77.0329 9.36451 77.385 9.02338 77.8252 8.71527C78.5735 8.18707 79.5088 7.75791 80.6312 7.42779C81.7757 7.09766 83.0411 6.9326 84.4277 6.9326C86.9146 6.9326 88.8293 7.4828 90.1718 8.58322C91.5143 9.66162 92.1856 11.1692 92.1856 13.1059V23.4388C91.9655 23.5048 91.6134 23.5708 91.1292 23.6369C90.667 23.7029 90.1828 23.7359 89.6766 23.7359C89.1925 23.7359 88.7523 23.7029 88.3561 23.6369C87.982 23.5708 87.6629 23.4388 87.3988 23.2407C87.1347 23.0426 86.9256 22.7785 86.7715 22.4484C86.6395 22.0963 86.5735 21.6451 86.5735 21.0949V13.304Z" fill="white"/>
<path d="M95.0927 15.4498C95.0927 13.9972 95.3128 12.7428 95.753 11.6864C96.1931 10.608 96.7983 9.71664 97.5686 9.01238C98.3609 8.30812 99.2743 7.79092 100.309 7.4608C101.365 7.10867 102.498 6.9326 103.709 6.9326C104.149 6.9326 104.578 6.97662 104.996 7.06465C105.415 7.13067 105.756 7.21871 106.02 7.32875V1.98074C106.24 1.91472 106.592 1.84869 107.076 1.78267C107.56 1.69464 108.056 1.65062 108.562 1.65062C109.046 1.65062 109.475 1.68363 109.849 1.74966C110.245 1.81568 110.576 1.94773 110.84 2.1458C111.104 2.34388 111.302 2.61898 111.434 2.97111C111.566 3.30124 111.632 3.7414 111.632 4.29161V19.9395C111.632 20.9739 111.148 21.7992 110.179 22.4154C109.541 22.8336 108.716 23.1967 107.703 23.5048C106.691 23.8349 105.525 24 104.204 24C102.774 24 101.486 23.8019 100.342 23.4058C99.2193 23.0096 98.2619 22.4374 97.4696 21.6891C96.6993 20.9409 96.1051 20.0495 95.6869 19.0151C95.2908 17.9587 95.0927 16.7703 95.0927 15.4498ZM104.468 11.3232C103.28 11.3232 102.366 11.6644 101.728 12.3466C101.09 13.0289 100.771 14.0633 100.771 15.4498C100.771 16.8143 101.068 17.8487 101.662 18.553C102.256 19.2352 103.115 19.5763 104.237 19.5763C104.633 19.5763 104.985 19.5213 105.294 19.4113C105.624 19.2792 105.877 19.1362 106.053 18.9821V11.7194C105.613 11.4553 105.084 11.3232 104.468 11.3232Z" fill="white"/>
<path d="M122.13 19.9065C122.504 19.9065 122.911 19.8735 123.351 19.8074C123.813 19.7194 124.154 19.6094 124.374 19.4773V16.8363L121.998 17.0344C121.381 17.0784 120.875 17.2105 120.479 17.4305C120.083 17.6506 119.885 17.9807 119.885 18.4209C119.885 18.8611 120.05 19.2242 120.38 19.5103C120.732 19.7744 121.315 19.9065 122.13 19.9065ZM121.865 6.9326C123.054 6.9326 124.132 7.05364 125.101 7.29574C126.091 7.53783 126.927 7.91197 127.61 8.41816C128.314 8.90234 128.853 9.52957 129.227 10.2999C129.601 11.0481 129.788 11.9395 129.788 12.9739V20.3686C129.788 20.9409 129.623 21.414 129.293 21.7882C128.985 22.1403 128.611 22.4484 128.171 22.7125C126.74 23.5708 124.727 24 122.13 24C120.963 24 119.907 23.89 118.96 23.6699C118.036 23.4498 117.233 23.1197 116.55 22.6795C115.89 22.2393 115.373 21.6781 114.999 20.9959C114.647 20.3136 114.471 19.5213 114.471 18.619C114.471 17.1004 114.922 15.934 115.824 15.1197C116.727 14.3054 118.124 13.7992 120.017 13.6011L124.341 13.1389V12.9078C124.341 12.2696 124.055 11.8184 123.483 11.5543C122.933 11.2682 122.13 11.1252 121.073 11.1252C120.237 11.1252 119.423 11.2132 118.63 11.3893C117.838 11.5653 117.123 11.7854 116.484 12.0495C116.198 11.8514 115.956 11.5543 115.758 11.1582C115.56 10.74 115.461 10.3109 115.461 9.8707C115.461 9.29849 115.593 8.84732 115.857 8.51719C116.143 8.16506 116.572 7.86795 117.145 7.62586C117.783 7.38377 118.531 7.2077 119.39 7.09766C120.27 6.98762 121.095 6.9326 121.865 6.9326Z" fill="white"/>
<path d="M133.222 2.97111C133.222 2.1348 133.497 1.43054 134.047 0.858321C134.619 0.286107 135.368 0 136.292 0C137.216 0 137.953 0.286107 138.504 0.858321C139.076 1.43054 139.362 2.1348 139.362 2.97111C139.362 3.80743 139.076 4.51169 138.504 5.08391C137.953 5.65612 137.216 5.94223 136.292 5.94223C135.368 5.94223 134.619 5.65612 134.047 5.08391C133.497 4.51169 133.222 3.80743 133.222 2.97111ZM139.098 23.4388C138.856 23.4828 138.493 23.5378 138.009 23.6039C137.546 23.6919 137.073 23.7359 136.589 23.7359C136.105 23.7359 135.665 23.7029 135.268 23.6369C134.894 23.5708 134.575 23.4388 134.311 23.2407C134.047 23.0426 133.838 22.7785 133.684 22.4484C133.552 22.0963 133.486 21.6451 133.486 21.0949V7.65887C133.728 7.61486 134.08 7.55983 134.542 7.49381C135.026 7.40578 135.511 7.36176 135.995 7.36176C136.479 7.36176 136.908 7.39477 137.282 7.4608C137.678 7.52682 138.009 7.65887 138.273 7.85695C138.537 8.05502 138.735 8.33012 138.867 8.68226C139.021 9.01238 139.098 9.45255 139.098 10.0028V23.4388Z" fill="white"/>
</svg>
